<?xml version="1.0" encoding="utf-8" standalone="no"?>
<!DOCTYPE svg PUBLIC "-//W3C//DTD SVG 1.1//EN"
  "http://www.w3.org/Graphics/SVG/1.1/DTD/svg11.dtd">
<svg xmlns:xlink="http://www.w3.org/1999/xlink" width="1797.996875pt" height="1165.623125pt" viewBox="0 0 1797.996875 1165.623125" xmlns="http://www.w3.org/2000/svg" version="1.1">
 <metadata>
  <rdf:RDF xmlns:dc="http://purl.org/dc/elements/1.1/" xmlns:cc="http://creativecommons.org/ns#" xmlns:rdf="http://www.w3.org/1999/02/22-rdf-syntax-ns#">
   <cc:Work>
    <dc:type rdf:resource="http://purl.org/dc/dcmitype/StillImage"/>
    <dc:date>2024-08-16T00:56:29.641053</dc:date>
    <dc:format>image/svg+xml</dc:format>
    <dc:creator>
     <cc:Agent>
      <dc:title>Matplotlib v3.9.2, https://matplotlib.org/</dc:title>
     </cc:Agent>
    </dc:creator>
   </cc:Work>
  </rdf:RDF>
 </metadata>
 <defs>
  <style type="text/css">*{stroke-linejoin: round; stroke-linecap: butt}</style>
 </defs>
 <g id="figure_1">
  <g id="patch_1">
   <path d="M 0 1165.623125 
L 1797.996875 1165.623125 
L 1797.996875 0 
L 0 0 
z
" style="fill: #ffffff"/>
  </g>
  <g id="axes_1">
   <g id="patch_2">
    <path d="M 116.796875 1116 
L 1790.796875 1116 
L 1790.796875 7.2 
L 116.796875 7.2 
z
" style="fill: #ffffff"/>
   </g>
   <g id="matplotlib.axis_1">
    <g id="xtick_1">
     <g id="line2d_1">
      <path d="M 192.887784 1116 
L 192.887784 7.2 
" clip-path="url(#p7cad75fcf1)" style="fill: none; stroke: #f5f5f5; stroke-opacity: 0.5; stroke-width: 3; stroke-linecap: round"/>
     </g>
     <g id="text_1">
      <!-- 1960 -->
      <g style="fill: #262626" transform="translate(152.849034 1151.268125) scale(0.36 -0.36)">
       <defs>
        <path id="ArialMT-31" d="M 2384 0 
L 1822 0 
L 1822 3584 
Q 1619 3391 1289 3197 
Q 959 3003 697 2906 
L 697 3450 
Q 1169 3672 1522 3987 
Q 1875 4303 2022 4600 
L 2384 4600 
L 2384 0 
z
" transform="scale(0.015625)"/>
        <path id="ArialMT-39" d="M 350 1059 
L 891 1109 
Q 959 728 1153 556 
Q 1347 384 1650 384 
Q 1909 384 2104 503 
Q 2300 622 2425 820 
Q 2550 1019 2634 1356 
Q 2719 1694 2719 2044 
Q 2719 2081 2716 2156 
Q 2547 1888 2255 1720 
Q 1963 1553 1622 1553 
Q 1053 1553 659 1965 
Q 266 2378 266 3053 
Q 266 3750 677 4175 
Q 1088 4600 1706 4600 
Q 2153 4600 2523 4359 
Q 2894 4119 3086 3673 
Q 3278 3228 3278 2384 
Q 3278 1506 3087 986 
Q 2897 466 2520 194 
Q 2144 -78 1638 -78 
Q 1100 -78 759 220 
Q 419 519 350 1059 
z
M 2653 3081 
Q 2653 3566 2395 3850 
Q 2138 4134 1775 4134 
Q 1400 4134 1122 3828 
Q 844 3522 844 3034 
Q 844 2597 1108 2323 
Q 1372 2050 1759 2050 
Q 2150 2050 2401 2323 
Q 2653 2597 2653 3081 
z
" transform="scale(0.015625)"/>
        <path id="ArialMT-36" d="M 3184 3459 
L 2625 3416 
Q 2550 3747 2413 3897 
Q 2184 4138 1850 4138 
Q 1581 4138 1378 3988 
Q 1113 3794 959 3422 
Q 806 3050 800 2363 
Q 1003 2672 1297 2822 
Q 1591 2972 1913 2972 
Q 2475 2972 2870 2558 
Q 3266 2144 3266 1488 
Q 3266 1056 3080 686 
Q 2894 316 2569 119 
Q 2244 -78 1831 -78 
Q 1128 -78 684 439 
Q 241 956 241 2144 
Q 241 3472 731 4075 
Q 1159 4600 1884 4600 
Q 2425 4600 2770 4297 
Q 3116 3994 3184 3459 
z
M 888 1484 
Q 888 1194 1011 928 
Q 1134 663 1356 523 
Q 1578 384 1822 384 
Q 2178 384 2434 671 
Q 2691 959 2691 1453 
Q 2691 1928 2437 2201 
Q 2184 2475 1800 2475 
Q 1419 2475 1153 2201 
Q 888 1928 888 1484 
z
" transform="scale(0.015625)"/>
        <path id="ArialMT-30" d="M 266 2259 
Q 266 3072 433 3567 
Q 600 4063 929 4331 
Q 1259 4600 1759 4600 
Q 2128 4600 2406 4451 
Q 2684 4303 2865 4023 
Q 3047 3744 3150 3342 
Q 3253 2941 3253 2259 
Q 3253 1453 3087 958 
Q 2922 463 2592 192 
Q 2263 -78 1759 -78 
Q 1097 -78 719 397 
Q 266 969 266 2259 
z
M 844 2259 
Q 844 1131 1108 757 
Q 1372 384 1759 384 
Q 2147 384 2411 759 
Q 2675 1134 2675 2259 
Q 2675 3391 2411 3762 
Q 2147 4134 1753 4134 
Q 1366 4134 1134 3806 
Q 844 3388 844 2259 
z
" transform="scale(0.015625)"/>
       </defs>
       <use xlink:href="#ArialMT-31"/>
       <use xlink:href="#ArialMT-39" x="55.615234"/>
       <use xlink:href="#ArialMT-36" x="111.230469"/>
       <use xlink:href="#ArialMT-30" x="166.845703"/>
      </g>
     </g>
    </g>
    <g id="xtick_2">
     <g id="line2d_2">
      <path d="M 450.855386 1116 
L 450.855386 7.2 
" clip-path="url(#p7cad75fcf1)" style="fill: none; stroke: #f5f5f5; stroke-opacity: 0.5; stroke-width: 3; stroke-linecap: round"/>
     </g>
     <g id="text_2">
      <!-- 1970 -->
      <g style="fill: #262626" transform="translate(410.816636 1151.268125) scale(0.36 -0.36)">
       <defs>
        <path id="ArialMT-37" d="M 303 3981 
L 303 4522 
L 3269 4522 
L 3269 4084 
Q 2831 3619 2401 2847 
Q 1972 2075 1738 1259 
Q 1569 684 1522 0 
L 944 0 
Q 953 541 1156 1306 
Q 1359 2072 1739 2783 
Q 2119 3494 2547 3981 
L 303 3981 
z
" transform="scale(0.015625)"/>
       </defs>
       <use xlink:href="#ArialMT-31"/>
       <use xlink:href="#ArialMT-39" x="55.615234"/>
       <use xlink:href="#ArialMT-37" x="111.230469"/>
       <use xlink:href="#ArialMT-30" x="166.845703"/>
      </g>
     </g>
    </g>
    <g id="xtick_3">
     <g id="line2d_3">
      <path d="M 708.75237 1116 
L 708.75237 7.2 
" clip-path="url(#p7cad75fcf1)" style="fill: none; stroke: #f5f5f5; stroke-opacity: 0.5; stroke-width: 3; stroke-linecap: round"/>
     </g>
     <g id="text_3">
      <!-- 1980 -->
      <g style="fill: #262626" transform="translate(668.71362 1151.268125) scale(0.36 -0.36)">
       <defs>
        <path id="ArialMT-38" d="M 1131 2484 
Q 781 2613 612 2850 
Q 444 3088 444 3419 
Q 444 3919 803 4259 
Q 1163 4600 1759 4600 
Q 2359 4600 2725 4251 
Q 3091 3903 3091 3403 
Q 3091 3084 2923 2848 
Q 2756 2613 2416 2484 
Q 2838 2347 3058 2040 
Q 3278 1734 3278 1309 
Q 3278 722 2862 322 
Q 2447 -78 1769 -78 
Q 1091 -78 675 323 
Q 259 725 259 1325 
Q 259 1772 486 2073 
Q 713 2375 1131 2484 
z
M 1019 3438 
Q 1019 3113 1228 2906 
Q 1438 2700 1772 2700 
Q 2097 2700 2305 2904 
Q 2513 3109 2513 3406 
Q 2513 3716 2298 3927 
Q 2084 4138 1766 4138 
Q 1444 4138 1231 3931 
Q 1019 3725 1019 3438 
z
M 838 1322 
Q 838 1081 952 856 
Q 1066 631 1291 507 
Q 1516 384 1775 384 
Q 2178 384 2440 643 
Q 2703 903 2703 1303 
Q 2703 1709 2433 1975 
Q 2163 2241 1756 2241 
Q 1359 2241 1098 1978 
Q 838 1716 838 1322 
z
" transform="scale(0.015625)"/>
       </defs>
       <use xlink:href="#ArialMT-31"/>
       <use xlink:href="#ArialMT-39" x="55.615234"/>
       <use xlink:href="#ArialMT-38" x="111.230469"/>
       <use xlink:href="#ArialMT-30" x="166.845703"/>
      </g>
     </g>
    </g>
    <g id="xtick_4">
     <g id="line2d_4">
      <path d="M 966.719971 1116 
L 966.719971 7.2 
" clip-path="url(#p7cad75fcf1)" style="fill: none; stroke: #f5f5f5; stroke-opacity: 0.5; stroke-width: 3; stroke-linecap: round"/>
     </g>
     <g id="text_4">
      <!-- 1990 -->
      <g style="fill: #262626" transform="translate(926.681221 1151.268125) scale(0.36 -0.36)">
       <use xlink:href="#ArialMT-31"/>
       <use xlink:href="#ArialMT-39" x="55.615234"/>
       <use xlink:href="#ArialMT-39" x="111.230469"/>
       <use xlink:href="#ArialMT-30" x="166.845703"/>
      </g>
     </g>
    </g>
    <g id="xtick_5">
     <g id="line2d_5">
      <path d="M 1224.616955 1116 
L 1224.616955 7.2 
" clip-path="url(#p7cad75fcf1)" style="fill: none; stroke: #f5f5f5; stroke-opacity: 0.5; stroke-width: 3; stroke-linecap: round"/>
     </g>
     <g id="text_5">
      <!-- 2000 -->
      <g style="fill: #262626" transform="translate(1184.578205 1151.268125) scale(0.36 -0.36)">
       <defs>
        <path id="ArialMT-32" d="M 3222 541 
L 3222 0 
L 194 0 
Q 188 203 259 391 
Q 375 700 629 1000 
Q 884 1300 1366 1694 
Q 2113 2306 2375 2664 
Q 2638 3022 2638 3341 
Q 2638 3675 2398 3904 
Q 2159 4134 1775 4134 
Q 1369 4134 1125 3890 
Q 881 3647 878 3216 
L 300 3275 
Q 359 3922 746 4261 
Q 1134 4600 1788 4600 
Q 2447 4600 2831 4234 
Q 3216 3869 3216 3328 
Q 3216 3053 3103 2787 
Q 2991 2522 2730 2228 
Q 2469 1934 1863 1422 
Q 1356 997 1212 845 
Q 1069 694 975 541 
L 3222 541 
z
" transform="scale(0.015625)"/>
       </defs>
       <use xlink:href="#ArialMT-32"/>
       <use xlink:href="#ArialMT-30" x="55.615234"/>
       <use xlink:href="#ArialMT-30" x="111.230469"/>
       <use xlink:href="#ArialMT-30" x="166.845703"/>
      </g>
     </g>
    </g>
    <g id="xtick_6">
     <g id="line2d_6">
      <path d="M 1482.584557 1116 
L 1482.584557 7.2 
" clip-path="url(#p7cad75fcf1)" style="fill: none; stroke: #f5f5f5; stroke-opacity: 0.5; stroke-width: 3; stroke-linecap: round"/>
     </g>
     <g id="text_6">
      <!-- 2010 -->
      <g style="fill: #262626" transform="translate(1442.545807 1151.268125) scale(0.36 -0.36)">
       <use xlink:href="#ArialMT-32"/>
       <use xlink:href="#ArialMT-30" x="55.615234"/>
       <use xlink:href="#ArialMT-31" x="111.230469"/>
       <use xlink:href="#ArialMT-30" x="166.845703"/>
      </g>
     </g>
    </g>
    <g id="xtick_7">
     <g id="line2d_7">
      <path d="M 1740.481541 1116 
L 1740.481541 7.2 
" clip-path="url(#p7cad75fcf1)" style="fill: none; stroke: #f5f5f5; stroke-opacity: 0.5; stroke-width: 3; stroke-linecap: round"/>
     </g>
     <g id="text_7">
      <!-- 2020 -->
      <g style="fill: #262626" transform="translate(1700.442791 1151.268125) scale(0.36 -0.36)">
       <use xlink:href="#ArialMT-32"/>
       <use xlink:href="#ArialMT-30" x="55.615234"/>
       <use xlink:href="#ArialMT-32" x="111.230469"/>
       <use xlink:href="#ArialMT-30" x="166.845703"/>
      </g>
     </g>
    </g>
   </g>
   <g id="matplotlib.axis_2">
    <g id="ytick_1">
     <g id="line2d_8">
      <path d="M 116.796875 1079.417356 
L 1790.796875 1079.417356 
" clip-path="url(#p7cad75fcf1)" style="fill: none; stroke: #f5f5f5; stroke-opacity: 0.5; stroke-width: 3; stroke-linecap: round"/>
     </g>
     <g id="text_8">
      <!-- 0 -->
      <g style="fill: #262626" transform="translate(87.2775 1092.301419) scale(0.36 -0.36)">
       <use xlink:href="#ArialMT-30"/>
      </g>
     </g>
    </g>
    <g id="ytick_2">
     <g id="line2d_9">
      <path d="M 116.796875 918.230353 
L 1790.796875 918.230353 
" clip-path="url(#p7cad75fcf1)" style="fill: none; stroke: #f5f5f5; stroke-opacity: 0.5; stroke-width: 3; stroke-linecap: round"/>
     </g>
     <g id="text_9">
      <!-- 10000 -->
      <g style="fill: #262626" transform="translate(7.2 931.114416) scale(0.36 -0.36)">
       <use xlink:href="#ArialMT-31"/>
       <use xlink:href="#ArialMT-30" x="55.615234"/>
       <use xlink:href="#ArialMT-30" x="111.230469"/>
       <use xlink:href="#ArialMT-30" x="166.845703"/>
       <use xlink:href="#ArialMT-30" x="222.460938"/>
      </g>
     </g>
    </g>
    <g id="ytick_3">
     <g id="line2d_10">
      <path d="M 116.796875 757.043351 
L 1790.796875 757.043351 
" clip-path="url(#p7cad75fcf1)" style="fill: none; stroke: #f5f5f5; stroke-opacity: 0.5; stroke-width: 3; stroke-linecap: round"/>
     </g>
     <g id="text_10">
      <!-- 20000 -->
      <g style="fill: #262626" transform="translate(7.2 769.927413) scale(0.36 -0.36)">
       <use xlink:href="#ArialMT-32"/>
       <use xlink:href="#ArialMT-30" x="55.615234"/>
       <use xlink:href="#ArialMT-30" x="111.230469"/>
       <use xlink:href="#ArialMT-30" x="166.845703"/>
       <use xlink:href="#ArialMT-30" x="222.460938"/>
      </g>
     </g>
    </g>
    <g id="ytick_4">
     <g id="line2d_11">
      <path d="M 116.796875 595.856348 
L 1790.796875 595.856348 
" clip-path="url(#p7cad75fcf1)" style="fill: none; stroke: #f5f5f5; stroke-opacity: 0.5; stroke-width: 3; stroke-linecap: round"/>
     </g>
     <g id="text_11">
      <!-- 30000 -->
      <g style="fill: #262626" transform="translate(7.2 608.740411) scale(0.36 -0.36)">
       <defs>
        <path id="ArialMT-33" d="M 269 1209 
L 831 1284 
Q 928 806 1161 595 
Q 1394 384 1728 384 
Q 2125 384 2398 659 
Q 2672 934 2672 1341 
Q 2672 1728 2419 1979 
Q 2166 2231 1775 2231 
Q 1616 2231 1378 2169 
L 1441 2663 
Q 1497 2656 1531 2656 
Q 1891 2656 2178 2843 
Q 2466 3031 2466 3422 
Q 2466 3731 2256 3934 
Q 2047 4138 1716 4138 
Q 1388 4138 1169 3931 
Q 950 3725 888 3313 
L 325 3413 
Q 428 3978 793 4289 
Q 1159 4600 1703 4600 
Q 2078 4600 2393 4439 
Q 2709 4278 2876 4000 
Q 3044 3722 3044 3409 
Q 3044 3113 2884 2869 
Q 2725 2625 2413 2481 
Q 2819 2388 3044 2092 
Q 3269 1797 3269 1353 
Q 3269 753 2831 336 
Q 2394 -81 1725 -81 
Q 1122 -81 723 278 
Q 325 638 269 1209 
z
" transform="scale(0.015625)"/>
       </defs>
       <use xlink:href="#ArialMT-33"/>
       <use xlink:href="#ArialMT-30" x="55.615234"/>
       <use xlink:href="#ArialMT-30" x="111.230469"/>
       <use xlink:href="#ArialMT-30" x="166.845703"/>
       <use xlink:href="#ArialMT-30" x="222.460938"/>
      </g>
     </g>
    </g>
    <g id="ytick_5">
     <g id="line2d_12">
      <path d="M 116.796875 434.669346 
L 1790.796875 434.669346 
" clip-path="url(#p7cad75fcf1)" style="fill: none; stroke: #f5f5f5; stroke-opacity: 0.5; stroke-width: 3; stroke-linecap: round"/>
     </g>
     <g id="text_12">
      <!-- 40000 -->
      <g style="fill: #262626" transform="translate(7.2 447.553408) scale(0.36 -0.36)">
       <defs>
        <path id="ArialMT-34" d="M 2069 0 
L 2069 1097 
L 81 1097 
L 81 1613 
L 2172 4581 
L 2631 4581 
L 2631 1613 
L 3250 1613 
L 3250 1097 
L 2631 1097 
L 2631 0 
L 2069 0 
z
M 2069 1613 
L 2069 3678 
L 634 1613 
L 2069 1613 
z
" transform="scale(0.015625)"/>
       </defs>
       <use xlink:href="#ArialMT-34"/>
       <use xlink:href="#ArialMT-30" x="55.615234"/>
       <use xlink:href="#ArialMT-30" x="111.230469"/>
       <use xlink:href="#ArialMT-30" x="166.845703"/>
       <use xlink:href="#ArialMT-30" x="222.460938"/>
      </g>
     </g>
    </g>
    <g id="ytick_6">
     <g id="line2d_13">
      <path d="M 116.796875 273.482343 
L 1790.796875 273.482343 
" clip-path="url(#p7cad75fcf1)" style="fill: none; stroke: #f5f5f5; stroke-opacity: 0.5; stroke-width: 3; stroke-linecap: round"/>
     </g>
     <g id="text_13">
      <!-- 50000 -->
      <g style="fill: #262626" transform="translate(7.2 286.366406) scale(0.36 -0.36)">
       <defs>
        <path id="ArialMT-35" d="M 266 1200 
L 856 1250 
Q 922 819 1161 601 
Q 1400 384 1738 384 
Q 2144 384 2425 690 
Q 2706 997 2706 1503 
Q 2706 1984 2436 2262 
Q 2166 2541 1728 2541 
Q 1456 2541 1237 2417 
Q 1019 2294 894 2097 
L 366 2166 
L 809 4519 
L 3088 4519 
L 3088 3981 
L 1259 3981 
L 1013 2750 
Q 1425 3038 1878 3038 
Q 2478 3038 2890 2622 
Q 3303 2206 3303 1553 
Q 3303 931 2941 478 
Q 2500 -78 1738 -78 
Q 1113 -78 717 272 
Q 322 622 266 1200 
z
" transform="scale(0.015625)"/>
       </defs>
       <use xlink:href="#ArialMT-35"/>
       <use xlink:href="#ArialMT-30" x="55.615234"/>
       <use xlink:href="#ArialMT-30" x="111.230469"/>
       <use xlink:href="#ArialMT-30" x="166.845703"/>
       <use xlink:href="#ArialMT-30" x="222.460938"/>
      </g>
     </g>
    </g>
    <g id="ytick_7">
     <g id="line2d_14">
      <path d="M 116.796875 112.295341 
L 1790.796875 112.295341 
" clip-path="url(#p7cad75fcf1)" style="fill: none; stroke: #f5f5f5; stroke-opacity: 0.5; stroke-width: 3; stroke-linecap: round"/>
     </g>
     <g id="text_14">
      <!-- 60000 -->
      <g style="fill: #262626" transform="translate(7.2 125.179403) scale(0.36 -0.36)">
       <use xlink:href="#ArialMT-36"/>
       <use xlink:href="#ArialMT-30" x="55.615234"/>
       <use xlink:href="#ArialMT-30" x="111.230469"/>
       <use xlink:href="#ArialMT-30" x="166.845703"/>
       <use xlink:href="#ArialMT-30" x="222.460938"/>
      </g>
     </g>
    </g>
   </g>
   <g id="line2d_15">
    <path d="M 192.887784 774.76186 
L 218.733977 772.063061 
L 244.509552 758.172585 
L 270.285126 749.048269 
L 296.060701 734.471391 
L 321.906894 715.861748 
L 347.682469 696.34667 
L 373.458044 690.51006 
L 399.233618 675.345553 
L 425.079811 666.344828 
L 450.855386 670.74958 
L 476.630961 660.863951 
L 502.406535 642.119643 
L 528.252728 620.8953 
L 554.028303 633.313663 
L 579.803878 639.48368 
L 605.579453 617.826652 
L 631.425645 601.320292 
L 657.20122 578.706064 
L 682.976795 569.458515 
L 708.75237 583.147226 
L 734.598562 573.993736 
L 760.374137 587.942056 
L 786.149712 567.545951 
L 811.925287 531.331396 
L 837.77148 513.288983 
L 863.547054 500.347876 
L 889.322629 487.772019 
L 915.098204 469.144723 
L 940.944397 453.081054 
L 966.719971 449.830147 
L 992.495546 456.808252 
L 1018.271121 440.326935 
L 1044.117314 426.947684 
L 1069.892888 405.350203 
L 1095.668463 394.376799 
L 1121.444038 374.717952 
L 1147.290231 349.110061 
L 1173.065806 321.001166 
L 1198.84138 294.180587 
L 1224.616955 272.04988 
L 1250.463148 271.865118 
L 1276.238723 265.663784 
L 1302.014297 250.377394 
L 1327.789872 225.710932 
L 1353.636065 205.606618 
L 1379.41164 188.997913 
L 1405.187215 181.472961 
L 1430.962789 202.226576 
L 1456.808982 228.294073 
L 1482.584557 214.390031 
L 1508.360132 208.953459 
L 1534.135706 192.685573 
L 1559.981899 178.271773 
L 1585.757474 158.766424 
L 1611.533049 129.755178 
L 1637.308624 117.071215 
L 1663.154816 99.916003 
L 1688.930391 75.648946 
L 1714.705966 57.6 
" clip-path="url(#p7cad75fcf1)" style="fill: none; stroke: #03256c; stroke-width: 8; stroke-linecap: square"/>
   </g>
   <g id="line2d_16">
    <path d="M 192.887784 1063.36151 
L 218.733977 1065.6 
L 244.509552 1064.571425 
L 270.285126 1063.249413 
L 296.060701 1061.751854 
L 321.906894 1060.464052 
L 347.682469 1060.460596 
L 373.458044 1060.404854 
L 399.233618 1061.439547 
L 425.079811 1060.192527 
L 450.855386 1058.460578 
L 476.630961 1056.910607 
L 502.406535 1058.073781 
L 528.252728 1056.714552 
L 554.028303 1056.925598 
L 579.803878 1056.286572 
L 605.579453 1057.522671 
L 631.425645 1056.318355 
L 657.20122 1053.275298 
L 682.976795 1052.36734 
L 708.75237 1052.330498 
L 734.598562 1052.409388 
L 760.374137 1050.635565 
L 786.149712 1049.042442 
L 811.925287 1045.628218 
L 837.77148 1042.622683 
L 863.547054 1041.809137 
L 889.322629 1039.918917 
L 915.098204 1038.52305 
L 940.944397 1039.188696 
L 966.719971 1039.477415 
L 992.495546 1037.881115 
L 1018.271121 1035.186169 
L 1044.117314 1032.436661 
L 1069.892888 1028.231586 
L 1095.668463 1023.202712 
L 1121.444038 1019.402278 
L 1147.290231 1016.869813 
L 1173.065806 1017.226442 
L 1198.84138 1014.709366 
L 1224.616955 1010.543317 
L 1250.463148 1005.180679 
L 1276.238723 998.544668 
L 1302.014297 992.043732 
L 1327.789872 982.23788 
L 1353.636065 971.73205 
L 1379.41164 960.751261 
L 1405.187215 949.438477 
L 1430.962789 943.828034 
L 1456.808982 933.687402 
L 1482.584557 916.191311 
L 1508.360132 905.830074 
L 1534.135706 896.301407 
L 1559.981899 888.908493 
L 1585.757474 882.260658 
L 1611.533049 874.717722 
L 1637.308624 867.2689 
L 1663.154816 858.215238 
L 1688.930391 859.156435 
L 1714.705966 853.945606 
" clip-path="url(#p7cad75fcf1)" style="fill: none; stroke-dasharray: 6,6; stroke-dashoffset: 0; stroke: #3f51b5; stroke-width: 8"/>
   </g>
   <g id="line2d_17">
    <path d="M 192.887784 985.588932 
L 218.733977 976.288469 
L 244.509552 967.238053 
L 270.285126 958.95666 
L 296.060701 946.4081 
L 321.906894 939.174576 
L 347.682469 926.332476 
L 373.458044 911.931529 
L 399.233618 892.876378 
L 425.079811 872.72122 
L 450.855386 853.203424 
L 476.630961 841.64527 
L 502.406535 823.391629 
L 528.252728 807.367879 
L 554.028303 818.617782 
L 579.803878 812.552132 
L 605.579453 798.829081 
L 631.425645 783.198607 
L 657.20122 761.31157 
L 682.976795 746.916334 
L 708.75237 740.906488 
L 734.598562 743.795777 
L 760.374137 751.937141 
L 786.149712 760.459085 
L 811.925287 761.781474 
L 837.77148 756.29796 
L 863.547054 735.897235 
L 889.322629 715.457372 
L 915.098204 680.589349 
L 940.944397 650.614179 
L 966.719971 619.488857 
L 992.495546 593.084684 
L 1018.271121 578.056501 
L 1044.117314 566.259611 
L 1069.892888 549.267571 
L 1095.668463 520.05283 
L 1121.444038 487.530936 
L 1147.290231 485.521931 
L 1173.065806 492.564108 
L 1198.84138 497.816243 
L 1224.616955 485.771292 
L 1250.463148 484.81259 
L 1276.238723 486.819014 
L 1302.014297 478.727147 
L 1327.789872 466.941184 
L 1353.636065 459.390141 
L 1379.41164 451.066198 
L 1405.187215 438.553352 
L 1430.962789 450.163141 
L 1456.808982 476.91883 
L 1482.584557 456.397106 
L 1508.360132 463.628499 
L 1534.135706 455.832156 
L 1559.981899 445.868128 
L 1585.757474 455.223147 
L 1611.533049 437.814031 
L 1637.308624 450.799001 
L 1663.154816 446.899259 
L 1688.930391 447.951418 
L 1714.705966 440.522181 
" clip-path="url(#p7cad75fcf1)" style="fill: none; stroke: #06bee1; stroke-width: 8; stroke-linecap: square"/>
   </g>
   <g id="line2d_18">
    <path d="M 192.887784 1026.98918 
L 218.733977 1025.356048 
L 244.509552 1028.710605 
L 270.285126 1029.869247 
L 296.060701 1027.320589 
L 321.906894 1020.250014 
L 347.682469 1021.432012 
L 373.458044 1019.693893 
L 399.233618 1018.850415 
L 425.079811 1014.489763 
L 450.855386 1014.192362 
L 476.630961 1012.257265 
L 502.406535 1011.754151 
L 528.252728 1009.071369 
L 554.028303 1006.974328 
L 579.803878 1008.885299 
L 605.579453 1010.795794 
L 631.425645 1009.145911 
L 657.20122 1012.275605 
L 682.976795 1007.206005 
L 708.75237 1004.184495 
L 734.598562 1005.963255 
L 760.374137 1007.039186 
L 786.149712 1001.597282 
L 811.925287 997.628036 
L 837.77148 1002.194366 
L 863.547054 992.884621 
L 889.322629 987.863959 
L 915.098204 984.903627 
L 940.944397 987.8624 
L 966.719971 982.207647 
L 992.495546 964.286231 
L 1018.271121 942.801309 
L 1044.117314 924.368374 
L 1069.892888 900.65705 
L 1095.668463 883.38309 
L 1121.444038 828.582892 
L 1147.290231 822.584008 
L 1173.065806 824.420544 
L 1198.84138 843.000539 
L 1224.616955 848.278593 
L 1250.463148 866.147358 
L 1276.238723 883.834811 
L 1302.014297 875.546585 
L 1327.789872 862.264356 
L 1353.636065 849.776912 
L 1379.41164 830.286357 
L 1405.187215 806.788723 
L 1430.962789 789.554299 
L 1456.808982 803.849416 
L 1482.584557 769.169662 
L 1508.360132 734.486001 
L 1534.135706 733.902907 
L 1559.981899 734.157074 
L 1585.757474 747.234326 
L 1611.533049 737.082973 
L 1637.308624 741.780317 
L 1663.154816 702.973835 
L 1688.930391 706.669018 
L 1714.705966 722.476578 
" clip-path="url(#p7cad75fcf1)" style="fill: none; stroke: #004e64; stroke-width: 8; stroke-linecap: square"/>
   </g>
   <g id="line2d_19">
    <path d="M 192.887784 991.297949 
L 218.733977 995.895045 
L 244.509552 978.312328 
L 270.285126 974.820934 
L 296.060701 974.707703 
L 321.906894 976.244687 
L 347.682469 967.762924 
L 373.458044 964.491996 
L 399.233618 961.219904 
L 425.079811 955.003711 
L 450.855386 957.105374 
L 476.630961 946.312816 
L 502.406535 949.572439 
L 528.252728 955.399437 
L 554.028303 960.085343 
L 579.803878 985.170401 
L 605.579453 980.3208 
L 631.425645 975.851438 
L 657.20122 970.132852 
L 682.976795 960.857126 
L 708.75237 956.330981 
L 734.598562 952.985888 
L 760.374137 971.677718 
L 786.149712 975.219964 
L 811.925287 974.772755 
L 837.77148 974.849639 
L 863.547054 971.505395 
L 889.322629 966.00768 
L 915.098204 954.915792 
L 940.944397 946.433985 
L 966.719971 946.982488 
L 992.495546 938.872658 
L 1018.271121 927.111913 
L 1044.117314 920.89359 
L 1069.892888 907.988075 
L 1095.668463 885.045807 
L 1121.444038 880.412065 
L 1147.290231 878.191756 
L 1173.065806 882.449133 
L 1198.84138 890.301903 
L 1224.616955 887.453882 
L 1250.463148 890.235524 
L 1276.238723 890.123913 
L 1302.014297 884.012422 
L 1327.789872 861.914684 
L 1353.636065 845.146808 
L 1379.41164 805.782048 
L 1405.187215 784.631911 
L 1430.962789 793.465822 
L 1456.808982 788.586022 
L 1482.584557 746.142765 
L 1508.360132 717.539821 
L 1534.135706 710.094175 
L 1559.981899 697.126611 
L 1585.757474 698.077301 
L 1611.533049 702.355611 
L 1637.308624 709.839065 
L 1663.154816 705.203914 
L 1688.930391 697.772047 
L 1714.705966 699.085322 
" clip-path="url(#p7cad75fcf1)" style="fill: none; stroke: #25a18e; stroke-width: 8; stroke-linecap: square"/>
   </g>
   <g id="line2d_20">
    <path d="M 192.887784 1018.759196 
L 218.733977 1016.948869 
L 244.509552 1015.83984 
L 270.285126 1015.897562 
L 296.060701 1012.118839 
L 321.906894 1014.201078 
L 347.682469 1012.99982 
L 373.458044 1012.201406 
L 399.233618 1010.062325 
L 425.079811 1007.16634 
L 450.855386 1003.054594 
L 476.630961 997.301469 
L 502.406535 990.361922 
L 528.252728 982.265146 
L 554.028303 977.73274 
L 579.803878 973.803748 
L 605.579453 968.040288 
L 631.425645 963.750129 
L 657.20122 958.622058 
L 682.976795 957.872032 
L 708.75237 955.411878 
L 734.598562 958.742317 
L 760.374137 960.350352 
L 786.149712 963.332925 
L 811.925287 962.801595 
L 837.77148 964.859431 
L 863.547054 958.203216 
L 889.322629 960.491708 
L 915.098204 959.797856 
L 940.944397 958.95853 
L 966.719971 957.123006 
L 992.495546 957.504056 
L 1018.271121 956.12096 
L 1044.117314 952.69646 
L 1069.892888 947.485989 
L 1095.668463 943.964422 
L 1121.444038 945.21428 
L 1147.290231 944.016074 
L 1173.065806 949.174224 
L 1198.84138 957.099728 
L 1224.616955 954.816103 
L 1250.463148 957.450078 
L 1276.238723 957.142959 
L 1302.014297 954.952152 
L 1327.789872 949.682805 
L 1353.636065 944.556903 
L 1379.41164 933.462046 
L 1405.187215 920.502047 
L 1430.962789 908.915316 
L 1456.808982 905.828596 
L 1482.584557 892.336915 
L 1508.360132 873.451424 
L 1534.135706 867.528645 
L 1559.981899 863.428283 
L 1585.757474 860.233826 
L 1611.533049 862.467343 
L 1637.308624 865.103282 
L 1663.154816 865.189205 
L 1688.930391 860.167919 
L 1714.705966 856.659313 
" clip-path="url(#p7cad75fcf1)" style="fill: none; stroke-dasharray: 6,6; stroke-dashoffset: 0; stroke: #1de9b6; stroke-width: 8"/>
   </g>
   <g id="line2d_21">
    <path d="M 192.887784 1040.262538 
L 218.733977 1036.53402 
L 244.509552 1035.088995 
L 270.285126 1033.511647 
L 296.060701 1032.468676 
L 321.906894 1030.609049 
L 347.682469 1030.019405 
L 373.458044 1027.483063 
L 399.233618 1023.798739 
L 425.079811 1024.139713 
L 450.855386 1017.892646 
L 476.630961 1012.48227 
L 502.406535 1006.085831 
L 528.252728 997.467781 
L 554.028303 994.697414 
L 579.803878 992.656963 
L 605.579453 986.461623 
L 631.425645 985.554355 
L 657.20122 984.917487 
L 682.976795 981.690906 
L 708.75237 983.167855 
L 734.598562 984.176408 
L 760.374137 983.929198 
L 786.149712 987.811998 
L 811.925287 984.835155 
L 837.77148 981.94493 
L 863.547054 971.632918 
L 889.322629 970.083267 
L 915.098204 970.332081 
L 940.944397 971.560206 
L 966.719971 976.947072 
L 992.495546 969.503139 
L 1018.271121 967.625254 
L 1044.117314 961.098631 
L 1069.892888 948.755795 
L 1095.668463 929.532983 
L 1121.444038 902.693622 
L 1147.290231 910.324522 
L 1173.065806 919.237124 
L 1198.84138 928.083525 
L 1224.616955 928.178716 
L 1250.463148 931.127242 
L 1276.238723 930.732334 
L 1302.014297 932.593372 
L 1327.789872 926.198016 
L 1353.636065 924.521265 
L 1379.41164 912.096341 
L 1405.187215 895.26386 
L 1430.962789 877.352059 
L 1456.808982 870.285175 
L 1482.584557 839.177042 
L 1508.360132 814.290779 
L 1534.135706 817.358489 
L 1559.981899 815.251911 
L 1585.757474 818.514897 
L 1611.533049 836.38569 
L 1637.308624 849.591245 
L 1663.154816 849.032625 
L 1688.930391 844.123624 
L 1714.705966 843.477128 
" clip-path="url(#p7cad75fcf1)" style="fill: none; stroke-dasharray: 6,6; stroke-dashoffset: 0; stroke: #ffc400; stroke-width: 8"/>
   </g>
   <g id="line2d_22">
    <path d="M 192.887784 1033.913175 
L 218.733977 1032.601301 
L 244.509552 1029.871861 
L 270.285126 1028.350373 
L 296.060701 1025.053629 
L 321.906894 1024.182497 
L 347.682469 1021.172962 
L 373.458044 1020.062674 
L 399.233618 1020.432648 
L 425.079811 1018.797099 
L 450.855386 1016.225944 
L 476.630961 1015.88262 
L 502.406535 1016.423853 
L 528.252728 1011.835652 
L 554.028303 1008.565895 
L 579.803878 1010.352682 
L 605.579453 1010.686216 
L 631.425645 1012.407121 
L 657.20122 1014.943185 
L 682.976795 1010.436284 
L 708.75237 1009.040992 
L 734.598562 1008.060849 
L 760.374137 1009.120446 
L 786.149712 1015.352684 
L 811.925287 1012.724516 
L 837.77148 1012.245977 
L 863.547054 1007.614753 
L 889.322629 1000.391113 
L 915.098204 1006.119456 
L 940.944397 1019.259731 
L 966.719971 1019.827555 
L 992.495546 1018.469421 
L 1018.271121 1018.5062 
L 1044.117314 1015.435729 
L 1069.892888 1005.925211 
L 1095.668463 998.329246 
L 1121.444038 995.638646 
L 1147.290231 991.225896 
L 1173.065806 994.353478 
L 1198.84138 995.610563 
L 1224.616955 994.468216 
L 1250.463148 995.136061 
L 1276.238723 990.30316 
L 1302.014297 985.652321 
L 1327.789872 978.407017 
L 1353.636065 969.296892 
L 1379.41164 953.24253 
L 1405.187215 941.507907 
L 1430.962789 933.783887 
L 1456.808982 932.416934 
L 1482.584557 914.363414 
L 1508.360132 899.70324 
L 1534.135706 893.232162 
L 1559.981899 890.327387 
L 1585.757474 891.020309 
L 1611.533049 890.329458 
L 1637.308624 887.347593 
L 1663.154816 883.529382 
L 1688.930391 879.837571 
L 1714.705966 879.33886 
" clip-path="url(#p7cad75fcf1)" style="fill: none; stroke: #f50057; stroke-width: 8; stroke-linecap: square"/>
   </g>
   <g id="patch_3">
    <path d="M 116.796875 1116 
L 116.796875 7.2 
" style="fill: none; stroke: #000000; stroke-linejoin: miter; stroke-linecap: square"/>
   </g>
   <g id="patch_4">
    <path d="M 1790.796875 1116 
L 1790.796875 7.2 
" style="fill: none; stroke: #000000; stroke-linejoin: miter; stroke-linecap: square"/>
   </g>
   <g id="patch_5">
    <path d="M 116.796875 1116 
L 1790.796875 1116 
" style="fill: none; stroke: #000000; stroke-linejoin: miter; stroke-linecap: square"/>
   </g>
   <g id="patch_6">
    <path d="M 116.796875 7.2 
L 1790.796875 7.2 
" style="fill: none; stroke: #000000; stroke-linejoin: miter; stroke-linecap: square"/>
   </g>
   <g id="legend_1">
    <g id="patch_7">
     <path d="M 137.796875 371.039063 
L 413.890625 371.039063 
Q 419.890625 371.039063 419.890625 365.039063 
L 419.890625 28.2 
Q 419.890625 22.2 413.890625 22.2 
L 137.796875 22.2 
Q 131.796875 22.2 131.796875 28.2 
L 131.796875 365.039063 
Q 131.796875 371.039063 137.796875 371.039063 
z
" style="fill: #f5f5f5; opacity: 0.5; stroke: #cccccc; stroke-linejoin: miter"/>
    </g>
    <g id="line2d_23">
     <path d="M 143.796875 45.173438 
L 173.796875 45.173438 
L 203.796875 45.173438 
" style="fill: none; stroke: #03256c; stroke-width: 8; stroke-linecap: square"/>
    </g>
    <g id="text_15">
     <!-- United States -->
     <g style="fill: #262626" transform="translate(227.796875 55.673438) scale(0.3 -0.3)">
      <defs>
       <path id="ArialMT-55" d="M 3500 4581 
L 4106 4581 
L 4106 1934 
Q 4106 1244 3950 837 
Q 3794 431 3386 176 
Q 2978 -78 2316 -78 
Q 1672 -78 1262 144 
Q 853 366 678 786 
Q 503 1206 503 1934 
L 503 4581 
L 1109 4581 
L 1109 1938 
Q 1109 1341 1220 1058 
Q 1331 775 1601 622 
Q 1872 469 2263 469 
Q 2931 469 3215 772 
Q 3500 1075 3500 1938 
L 3500 4581 
z
" transform="scale(0.015625)"/>
       <path id="ArialMT-6e" d="M 422 0 
L 422 3319 
L 928 3319 
L 928 2847 
Q 1294 3394 1984 3394 
Q 2284 3394 2536 3286 
Q 2788 3178 2913 3003 
Q 3038 2828 3088 2588 
Q 3119 2431 3119 2041 
L 3119 0 
L 2556 0 
L 2556 2019 
Q 2556 2363 2490 2533 
Q 2425 2703 2258 2804 
Q 2091 2906 1866 2906 
Q 1506 2906 1245 2678 
Q 984 2450 984 1813 
L 984 0 
L 422 0 
z
" transform="scale(0.015625)"/>
       <path id="ArialMT-69" d="M 425 3934 
L 425 4581 
L 988 4581 
L 988 3934 
L 425 3934 
z
M 425 0 
L 425 3319 
L 988 3319 
L 988 0 
L 425 0 
z
" transform="scale(0.015625)"/>
       <path id="ArialMT-74" d="M 1650 503 
L 1731 6 
Q 1494 -44 1306 -44 
Q 1000 -44 831 53 
Q 663 150 594 308 
Q 525 466 525 972 
L 525 2881 
L 113 2881 
L 113 3319 
L 525 3319 
L 525 4141 
L 1084 4478 
L 1084 3319 
L 1650 3319 
L 1650 2881 
L 1084 2881 
L 1084 941 
Q 1084 700 1114 631 
Q 1144 563 1211 522 
Q 1278 481 1403 481 
Q 1497 481 1650 503 
z
" transform="scale(0.015625)"/>
       <path id="ArialMT-65" d="M 2694 1069 
L 3275 997 
Q 3138 488 2766 206 
Q 2394 -75 1816 -75 
Q 1088 -75 661 373 
Q 234 822 234 1631 
Q 234 2469 665 2931 
Q 1097 3394 1784 3394 
Q 2450 3394 2872 2941 
Q 3294 2488 3294 1666 
Q 3294 1616 3291 1516 
L 816 1516 
Q 847 969 1125 678 
Q 1403 388 1819 388 
Q 2128 388 2347 550 
Q 2566 713 2694 1069 
z
M 847 1978 
L 2700 1978 
Q 2663 2397 2488 2606 
Q 2219 2931 1791 2931 
Q 1403 2931 1139 2672 
Q 875 2413 847 1978 
z
" transform="scale(0.015625)"/>
       <path id="ArialMT-64" d="M 2575 0 
L 2575 419 
Q 2259 -75 1647 -75 
Q 1250 -75 917 144 
Q 584 363 401 755 
Q 219 1147 219 1656 
Q 219 2153 384 2558 
Q 550 2963 881 3178 
Q 1213 3394 1622 3394 
Q 1922 3394 2156 3267 
Q 2391 3141 2538 2938 
L 2538 4581 
L 3097 4581 
L 3097 0 
L 2575 0 
z
M 797 1656 
Q 797 1019 1065 703 
Q 1334 388 1700 388 
Q 2069 388 2326 689 
Q 2584 991 2584 1609 
Q 2584 2291 2321 2609 
Q 2059 2928 1675 2928 
Q 1300 2928 1048 2622 
Q 797 2316 797 1656 
z
" transform="scale(0.015625)"/>
       <path id="ArialMT-20" transform="scale(0.015625)"/>
       <path id="ArialMT-53" d="M 288 1472 
L 859 1522 
Q 900 1178 1048 958 
Q 1197 738 1509 602 
Q 1822 466 2213 466 
Q 2559 466 2825 569 
Q 3091 672 3220 851 
Q 3350 1031 3350 1244 
Q 3350 1459 3225 1620 
Q 3100 1781 2813 1891 
Q 2628 1963 1997 2114 
Q 1366 2266 1113 2400 
Q 784 2572 623 2826 
Q 463 3081 463 3397 
Q 463 3744 659 4045 
Q 856 4347 1234 4503 
Q 1613 4659 2075 4659 
Q 2584 4659 2973 4495 
Q 3363 4331 3572 4012 
Q 3781 3694 3797 3291 
L 3216 3247 
Q 3169 3681 2898 3903 
Q 2628 4125 2100 4125 
Q 1550 4125 1298 3923 
Q 1047 3722 1047 3438 
Q 1047 3191 1225 3031 
Q 1400 2872 2139 2705 
Q 2878 2538 3153 2413 
Q 3553 2228 3743 1945 
Q 3934 1663 3934 1294 
Q 3934 928 3725 604 
Q 3516 281 3123 101 
Q 2731 -78 2241 -78 
Q 1619 -78 1198 103 
Q 778 284 539 648 
Q 300 1013 288 1472 
z
" transform="scale(0.015625)"/>
       <path id="ArialMT-61" d="M 2588 409 
Q 2275 144 1986 34 
Q 1697 -75 1366 -75 
Q 819 -75 525 192 
Q 231 459 231 875 
Q 231 1119 342 1320 
Q 453 1522 633 1644 
Q 813 1766 1038 1828 
Q 1203 1872 1538 1913 
Q 2219 1994 2541 2106 
Q 2544 2222 2544 2253 
Q 2544 2597 2384 2738 
Q 2169 2928 1744 2928 
Q 1347 2928 1158 2789 
Q 969 2650 878 2297 
L 328 2372 
Q 403 2725 575 2942 
Q 747 3159 1072 3276 
Q 1397 3394 1825 3394 
Q 2250 3394 2515 3294 
Q 2781 3194 2906 3042 
Q 3031 2891 3081 2659 
Q 3109 2516 3109 2141 
L 3109 1391 
Q 3109 606 3145 398 
Q 3181 191 3288 0 
L 2700 0 
Q 2613 175 2588 409 
z
M 2541 1666 
Q 2234 1541 1622 1453 
Q 1275 1403 1131 1340 
Q 988 1278 909 1158 
Q 831 1038 831 891 
Q 831 666 1001 516 
Q 1172 366 1500 366 
Q 1825 366 2078 508 
Q 2331 650 2450 897 
Q 2541 1088 2541 1459 
L 2541 1666 
z
" transform="scale(0.015625)"/>
       <path id="ArialMT-73" d="M 197 991 
L 753 1078 
Q 800 744 1014 566 
Q 1228 388 1613 388 
Q 2000 388 2187 545 
Q 2375 703 2375 916 
Q 2375 1106 2209 1216 
Q 2094 1291 1634 1406 
Q 1016 1563 777 1677 
Q 538 1791 414 1992 
Q 291 2194 291 2438 
Q 291 2659 392 2848 
Q 494 3038 669 3163 
Q 800 3259 1026 3326 
Q 1253 3394 1513 3394 
Q 1903 3394 2198 3281 
Q 2494 3169 2634 2976 
Q 2775 2784 2828 2463 
L 2278 2388 
Q 2241 2644 2061 2787 
Q 1881 2931 1553 2931 
Q 1166 2931 1000 2803 
Q 834 2675 834 2503 
Q 834 2394 903 2306 
Q 972 2216 1119 2156 
Q 1203 2125 1616 2013 
Q 2213 1853 2448 1751 
Q 2684 1650 2818 1456 
Q 2953 1263 2953 975 
Q 2953 694 2789 445 
Q 2625 197 2315 61 
Q 2006 -75 1616 -75 
Q 969 -75 630 194 
Q 291 463 197 991 
z
" transform="scale(0.015625)"/>
      </defs>
      <use xlink:href="#ArialMT-55"/>
      <use xlink:href="#ArialMT-6e" x="72.216797"/>
      <use xlink:href="#ArialMT-69" x="127.832031"/>
      <use xlink:href="#ArialMT-74" x="150.048828"/>
      <use xlink:href="#ArialMT-65" x="177.832031"/>
      <use xlink:href="#ArialMT-64" x="233.447266"/>
      <use xlink:href="#ArialMT-20" x="289.0625"/>
      <use xlink:href="#ArialMT-53" x="316.845703"/>
      <use xlink:href="#ArialMT-74" x="383.544922"/>
      <use xlink:href="#ArialMT-61" x="411.328125"/>
      <use xlink:href="#ArialMT-74" x="466.943359"/>
      <use xlink:href="#ArialMT-65" x="494.726562"/>
      <use xlink:href="#ArialMT-73" x="550.341797"/>
     </g>
    </g>
    <g id="line2d_24">
     <path d="M 143.796875 87.609375 
L 173.796875 87.609375 
L 203.796875 87.609375 
" style="fill: none; stroke-dasharray: 6,6; stroke-dashoffset: 0; stroke: #3f51b5; stroke-width: 8"/>
    </g>
    <g id="text_16">
     <!-- China -->
     <g style="fill: #262626" transform="translate(227.796875 98.109375) scale(0.3 -0.3)">
      <defs>
       <path id="ArialMT-43" d="M 3763 1606 
L 4369 1453 
Q 4178 706 3683 314 
Q 3188 -78 2472 -78 
Q 1731 -78 1267 223 
Q 803 525 561 1097 
Q 319 1669 319 2325 
Q 319 3041 592 3573 
Q 866 4106 1370 4382 
Q 1875 4659 2481 4659 
Q 3169 4659 3637 4309 
Q 4106 3959 4291 3325 
L 3694 3184 
Q 3534 3684 3231 3912 
Q 2928 4141 2469 4141 
Q 1941 4141 1586 3887 
Q 1231 3634 1087 3207 
Q 944 2781 944 2328 
Q 944 1744 1114 1308 
Q 1284 872 1643 656 
Q 2003 441 2422 441 
Q 2931 441 3284 734 
Q 3638 1028 3763 1606 
z
" transform="scale(0.015625)"/>
       <path id="ArialMT-68" d="M 422 0 
L 422 4581 
L 984 4581 
L 984 2938 
Q 1378 3394 1978 3394 
Q 2347 3394 2619 3248 
Q 2891 3103 3008 2847 
Q 3125 2591 3125 2103 
L 3125 0 
L 2563 0 
L 2563 2103 
Q 2563 2525 2380 2717 
Q 2197 2909 1863 2909 
Q 1613 2909 1392 2779 
Q 1172 2650 1078 2428 
Q 984 2206 984 1816 
L 984 0 
L 422 0 
z
" transform="scale(0.015625)"/>
      </defs>
      <use xlink:href="#ArialMT-43"/>
      <use xlink:href="#ArialMT-68" x="72.216797"/>
      <use xlink:href="#ArialMT-69" x="127.832031"/>
      <use xlink:href="#ArialMT-6e" x="150.048828"/>
      <use xlink:href="#ArialMT-61" x="205.664062"/>
     </g>
    </g>
    <g id="line2d_25">
     <path d="M 143.796875 130.045313 
L 173.796875 130.045313 
L 203.796875 130.045313 
" style="fill: none; stroke: #06bee1; stroke-width: 8; stroke-linecap: square"/>
    </g>
    <g id="text_17">
     <!-- Japan -->
     <g style="fill: #262626" transform="translate(227.796875 140.545313) scale(0.3 -0.3)">
      <defs>
       <path id="ArialMT-4a" d="M 184 1300 
L 731 1375 
Q 753 850 928 656 
Q 1103 463 1413 463 
Q 1641 463 1806 567 
Q 1972 672 2034 851 
Q 2097 1031 2097 1425 
L 2097 4581 
L 2703 4581 
L 2703 1459 
Q 2703 884 2564 568 
Q 2425 253 2123 87 
Q 1822 -78 1416 -78 
Q 813 -78 492 269 
Q 172 616 184 1300 
z
" transform="scale(0.015625)"/>
       <path id="ArialMT-70" d="M 422 -1272 
L 422 3319 
L 934 3319 
L 934 2888 
Q 1116 3141 1344 3267 
Q 1572 3394 1897 3394 
Q 2322 3394 2647 3175 
Q 2972 2956 3137 2557 
Q 3303 2159 3303 1684 
Q 3303 1175 3120 767 
Q 2938 359 2589 142 
Q 2241 -75 1856 -75 
Q 1575 -75 1351 44 
Q 1128 163 984 344 
L 984 -1272 
L 422 -1272 
z
M 931 1641 
Q 931 1000 1190 694 
Q 1450 388 1819 388 
Q 2194 388 2461 705 
Q 2728 1022 2728 1688 
Q 2728 2322 2467 2637 
Q 2206 2953 1844 2953 
Q 1484 2953 1207 2617 
Q 931 2281 931 1641 
z
" transform="scale(0.015625)"/>
      </defs>
      <use xlink:href="#ArialMT-4a"/>
      <use xlink:href="#ArialMT-61" x="50"/>
      <use xlink:href="#ArialMT-70" x="105.615234"/>
      <use xlink:href="#ArialMT-61" x="161.230469"/>
      <use xlink:href="#ArialMT-6e" x="216.845703"/>
     </g>
    </g>
    <g id="line2d_26">
     <path d="M 143.796875 172.48125 
L 173.796875 172.48125 
L 203.796875 172.48125 
" style="fill: none; stroke: #004e64; stroke-width: 8; stroke-linecap: square"/>
    </g>
    <g id="text_18">
     <!-- Argentina -->
     <g style="fill: #262626" transform="translate(227.796875 182.98125) scale(0.3 -0.3)">
      <defs>
       <path id="ArialMT-41" d="M -9 0 
L 1750 4581 
L 2403 4581 
L 4278 0 
L 3588 0 
L 3053 1388 
L 1138 1388 
L 634 0 
L -9 0 
z
M 1313 1881 
L 2866 1881 
L 2388 3150 
Q 2169 3728 2063 4100 
Q 1975 3659 1816 3225 
L 1313 1881 
z
" transform="scale(0.015625)"/>
       <path id="ArialMT-72" d="M 416 0 
L 416 3319 
L 922 3319 
L 922 2816 
Q 1116 3169 1280 3281 
Q 1444 3394 1641 3394 
Q 1925 3394 2219 3213 
L 2025 2691 
Q 1819 2813 1613 2813 
Q 1428 2813 1281 2702 
Q 1134 2591 1072 2394 
Q 978 2094 978 1738 
L 978 0 
L 416 0 
z
" transform="scale(0.015625)"/>
       <path id="ArialMT-67" d="M 319 -275 
L 866 -356 
Q 900 -609 1056 -725 
Q 1266 -881 1628 -881 
Q 2019 -881 2231 -725 
Q 2444 -569 2519 -288 
Q 2563 -116 2559 434 
Q 2191 0 1641 0 
Q 956 0 581 494 
Q 206 988 206 1678 
Q 206 2153 378 2554 
Q 550 2956 876 3175 
Q 1203 3394 1644 3394 
Q 2231 3394 2613 2919 
L 2613 3319 
L 3131 3319 
L 3131 450 
Q 3131 -325 2973 -648 
Q 2816 -972 2473 -1159 
Q 2131 -1347 1631 -1347 
Q 1038 -1347 672 -1080 
Q 306 -813 319 -275 
z
M 784 1719 
Q 784 1066 1043 766 
Q 1303 466 1694 466 
Q 2081 466 2343 764 
Q 2606 1063 2606 1700 
Q 2606 2309 2336 2618 
Q 2066 2928 1684 2928 
Q 1309 2928 1046 2623 
Q 784 2319 784 1719 
z
" transform="scale(0.015625)"/>
      </defs>
      <use xlink:href="#ArialMT-41"/>
      <use xlink:href="#ArialMT-72" x="66.699219"/>
      <use xlink:href="#ArialMT-67" x="100"/>
      <use xlink:href="#ArialMT-65" x="155.615234"/>
      <use xlink:href="#ArialMT-6e" x="211.230469"/>
      <use xlink:href="#ArialMT-74" x="266.845703"/>
      <use xlink:href="#ArialMT-69" x="294.628906"/>
      <use xlink:href="#ArialMT-6e" x="316.845703"/>
      <use xlink:href="#ArialMT-61" x="372.460938"/>
     </g>
    </g>
    <g id="line2d_27">
     <path d="M 143.796875 215.26875 
L 173.796875 215.26875 
L 203.796875 215.26875 
" style="fill: none; stroke: #25a18e; stroke-width: 8; stroke-linecap: square"/>
    </g>
    <g id="text_19">
     <!-- Chile -->
     <g style="fill: #262626" transform="translate(227.796875 225.76875) scale(0.3 -0.3)">
      <defs>
       <path id="ArialMT-6c" d="M 409 0 
L 409 4581 
L 972 4581 
L 972 0 
L 409 0 
z
" transform="scale(0.015625)"/>
      </defs>
      <use xlink:href="#ArialMT-43"/>
      <use xlink:href="#ArialMT-68" x="72.216797"/>
      <use xlink:href="#ArialMT-69" x="127.832031"/>
      <use xlink:href="#ArialMT-6c" x="150.048828"/>
      <use xlink:href="#ArialMT-65" x="172.265625"/>
     </g>
    </g>
    <g id="line2d_28">
     <path d="M 143.796875 257.704688 
L 173.796875 257.704688 
L 203.796875 257.704688 
" style="fill: none; stroke-dasharray: 6,6; stroke-dashoffset: 0; stroke: #1de9b6; stroke-width: 8"/>
    </g>
    <g id="text_20">
     <!-- Colombia -->
     <g style="fill: #262626" transform="translate(227.796875 268.204688) scale(0.3 -0.3)">
      <defs>
       <path id="ArialMT-6f" d="M 213 1659 
Q 213 2581 725 3025 
Q 1153 3394 1769 3394 
Q 2453 3394 2887 2945 
Q 3322 2497 3322 1706 
Q 3322 1066 3130 698 
Q 2938 331 2570 128 
Q 2203 -75 1769 -75 
Q 1072 -75 642 372 
Q 213 819 213 1659 
z
M 791 1659 
Q 791 1022 1069 705 
Q 1347 388 1769 388 
Q 2188 388 2466 706 
Q 2744 1025 2744 1678 
Q 2744 2294 2464 2611 
Q 2184 2928 1769 2928 
Q 1347 2928 1069 2612 
Q 791 2297 791 1659 
z
" transform="scale(0.015625)"/>
       <path id="ArialMT-6d" d="M 422 0 
L 422 3319 
L 925 3319 
L 925 2853 
Q 1081 3097 1340 3245 
Q 1600 3394 1931 3394 
Q 2300 3394 2536 3241 
Q 2772 3088 2869 2813 
Q 3263 3394 3894 3394 
Q 4388 3394 4653 3120 
Q 4919 2847 4919 2278 
L 4919 0 
L 4359 0 
L 4359 2091 
Q 4359 2428 4304 2576 
Q 4250 2725 4106 2815 
Q 3963 2906 3769 2906 
Q 3419 2906 3187 2673 
Q 2956 2441 2956 1928 
L 2956 0 
L 2394 0 
L 2394 2156 
Q 2394 2531 2256 2718 
Q 2119 2906 1806 2906 
Q 1569 2906 1367 2781 
Q 1166 2656 1075 2415 
Q 984 2175 984 1722 
L 984 0 
L 422 0 
z
" transform="scale(0.015625)"/>
       <path id="ArialMT-62" d="M 941 0 
L 419 0 
L 419 4581 
L 981 4581 
L 981 2947 
Q 1338 3394 1891 3394 
Q 2197 3394 2470 3270 
Q 2744 3147 2920 2923 
Q 3097 2700 3197 2384 
Q 3297 2069 3297 1709 
Q 3297 856 2875 390 
Q 2453 -75 1863 -75 
Q 1275 -75 941 416 
L 941 0 
z
M 934 1684 
Q 934 1088 1097 822 
Q 1363 388 1816 388 
Q 2184 388 2453 708 
Q 2722 1028 2722 1663 
Q 2722 2313 2464 2622 
Q 2206 2931 1841 2931 
Q 1472 2931 1203 2611 
Q 934 2291 934 1684 
z
" transform="scale(0.015625)"/>
      </defs>
      <use xlink:href="#ArialMT-43"/>
      <use xlink:href="#ArialMT-6f" x="72.216797"/>
      <use xlink:href="#ArialMT-6c" x="127.832031"/>
      <use xlink:href="#ArialMT-6f" x="150.048828"/>
      <use xlink:href="#ArialMT-6d" x="205.664062"/>
      <use xlink:href="#ArialMT-62" x="288.964844"/>
      <use xlink:href="#ArialMT-69" x="344.580078"/>
      <use xlink:href="#ArialMT-61" x="366.796875"/>
     </g>
    </g>
    <g id="line2d_29">
     <path d="M 143.796875 300.140625 
L 173.796875 300.140625 
L 203.796875 300.140625 
" style="fill: none; stroke-dasharray: 6,6; stroke-dashoffset: 0; stroke: #ffc400; stroke-width: 8"/>
    </g>
    <g id="text_21">
     <!-- Brazil -->
     <g style="fill: #262626" transform="translate(227.796875 310.640625) scale(0.3 -0.3)">
      <defs>
       <path id="ArialMT-42" d="M 469 0 
L 469 4581 
L 2188 4581 
Q 2713 4581 3030 4442 
Q 3347 4303 3526 4014 
Q 3706 3725 3706 3409 
Q 3706 3116 3547 2856 
Q 3388 2597 3066 2438 
Q 3481 2316 3704 2022 
Q 3928 1728 3928 1328 
Q 3928 1006 3792 729 
Q 3656 453 3456 303 
Q 3256 153 2954 76 
Q 2653 0 2216 0 
L 469 0 
z
M 1075 2656 
L 2066 2656 
Q 2469 2656 2644 2709 
Q 2875 2778 2992 2937 
Q 3109 3097 3109 3338 
Q 3109 3566 3000 3739 
Q 2891 3913 2687 3977 
Q 2484 4041 1991 4041 
L 1075 4041 
L 1075 2656 
z
M 1075 541 
L 2216 541 
Q 2509 541 2628 563 
Q 2838 600 2978 687 
Q 3119 775 3209 942 
Q 3300 1109 3300 1328 
Q 3300 1584 3169 1773 
Q 3038 1963 2805 2039 
Q 2572 2116 2134 2116 
L 1075 2116 
L 1075 541 
z
" transform="scale(0.015625)"/>
       <path id="ArialMT-7a" d="M 125 0 
L 125 456 
L 2238 2881 
Q 1878 2863 1603 2863 
L 250 2863 
L 250 3319 
L 2963 3319 
L 2963 2947 
L 1166 841 
L 819 456 
Q 1197 484 1528 484 
L 3063 484 
L 3063 0 
L 125 0 
z
" transform="scale(0.015625)"/>
      </defs>
      <use xlink:href="#ArialMT-42"/>
      <use xlink:href="#ArialMT-72" x="66.699219"/>
      <use xlink:href="#ArialMT-61" x="100"/>
      <use xlink:href="#ArialMT-7a" x="155.615234"/>
      <use xlink:href="#ArialMT-69" x="205.615234"/>
      <use xlink:href="#ArialMT-6c" x="227.832031"/>
     </g>
    </g>
    <g id="line2d_30">
     <path d="M 143.796875 342.576563 
L 173.796875 342.576563 
L 203.796875 342.576563 
" style="fill: none; stroke: #f50057; stroke-width: 8; stroke-linecap: square"/>
    </g>
    <g id="text_22">
     <!-- Peru -->
     <g style="fill: #262626" transform="translate(227.796875 353.076563) scale(0.3 -0.3)">
      <defs>
       <path id="ArialMT-50" d="M 494 0 
L 494 4581 
L 2222 4581 
Q 2678 4581 2919 4538 
Q 3256 4481 3484 4323 
Q 3713 4166 3852 3881 
Q 3991 3597 3991 3256 
Q 3991 2672 3619 2267 
Q 3247 1863 2275 1863 
L 1100 1863 
L 1100 0 
L 494 0 
z
M 1100 2403 
L 2284 2403 
Q 2872 2403 3119 2622 
Q 3366 2841 3366 3238 
Q 3366 3525 3220 3729 
Q 3075 3934 2838 4000 
Q 2684 4041 2272 4041 
L 1100 4041 
L 1100 2403 
z
" transform="scale(0.015625)"/>
       <path id="ArialMT-75" d="M 2597 0 
L 2597 488 
Q 2209 -75 1544 -75 
Q 1250 -75 995 37 
Q 741 150 617 320 
Q 494 491 444 738 
Q 409 903 409 1263 
L 409 3319 
L 972 3319 
L 972 1478 
Q 972 1038 1006 884 
Q 1059 663 1231 536 
Q 1403 409 1656 409 
Q 1909 409 2131 539 
Q 2353 669 2445 892 
Q 2538 1116 2538 1541 
L 2538 3319 
L 3100 3319 
L 3100 0 
L 2597 0 
z
" transform="scale(0.015625)"/>
      </defs>
      <use xlink:href="#ArialMT-50"/>
      <use xlink:href="#ArialMT-65" x="66.699219"/>
      <use xlink:href="#ArialMT-72" x="122.314453"/>
      <use xlink:href="#ArialMT-75" x="155.615234"/>
     </g>
    </g>
   </g>
  </g>
 </g>
 <defs>
  <clipPath id="p7cad75fcf1">
   <rect x="116.796875" y="7.2" width="1674" height="1108.8"/>
  </clipPath>
 </defs>
</svg>
