<?xml version="1.0" encoding="utf-8"?>
<!-- Generator: Adobe Illustrator 24.0.0, SVG Export Plug-In . SVG Version: 6.00 Build 0)  -->
<svg version="1.1" id="Capa_1" xmlns="http://www.w3.org/2000/svg" xmlns:xlink="http://www.w3.org/1999/xlink" x="0px" y="0px"
	 viewBox="0 0 1000 541.28" style="enable-background:new 0 0 1000 541.28;" xml:space="preserve">
<style type="text/css">
	.st0{fill:none;stroke:#E0E0E0;stroke-width:0.8446;stroke-linecap:square;stroke-linejoin:round;stroke-miterlimit:10;}
	.st1{fill:#E0E0E0;}
	.st2{font-family:'Helvetica';}
	.st3{font-size:16.0533px;}
	.st4{font-family:'Helvetica-Bold';}
	.st5{font-size:17.6593px;}
	.st6{fill:none;stroke:#E0E0E0;stroke-width:4;stroke-linejoin:round;stroke-miterlimit:10;}
	.st7{fill:none;stroke:#6C5FFF;stroke-width:4;stroke-linejoin:round;stroke-miterlimit:10;}
	.st8{fill:none;stroke:#00D290;stroke-width:3;stroke-linejoin:bevel;stroke-miterlimit:10;stroke-dasharray:12.1669,12.1669;}
</style>
<g>
	<path class="st0" d="M32.77,228.7h414.69 M32.77,23.89h414.69 M77.31,228.7v-4.15 M197.02,228.7v-4.15 M316.73,228.7v-4.15
		 M436.44,228.7v-4.15 M77.31,23.89v4.15 M197.02,23.89v4.15 M316.73,23.89v4.15 M436.44,23.89v4.15"/>
	<text transform="matrix(1 0 0 1 72.7456 250.6831)" class="st1 st2 st3">0</text>
	<text transform="matrix(1 0 0 1 185.8608 250.6831)" class="st1 st2 st3">0.5</text>
	<text transform="matrix(1 0 0 1 312.1646 250.6831)" class="st1 st2 st3">1</text>
	<text transform="matrix(1 0 0 1 425.2915 250.6831)" class="st1 st2 st3">1.5</text>
	<path class="st0" d="M32.77,228.7V23.89 M447.46,228.7V23.89 M32.77,228.7h4.15 M32.77,193.71h4.15 M32.77,158.72h4.15
		 M32.77,123.73h4.15 M32.77,88.74h4.15 M32.77,53.75h4.15 M447.46,228.7h-4.15 M447.46,193.71h-4.15 M447.46,158.72h-4.15
		 M447.46,123.73h-4.15 M447.46,88.74h-4.15 M447.46,53.75h-4.15"/>
	<text transform="matrix(1 0 0 1 17.9048 234.7876)" class="st1 st2 st3">0</text>
	<text transform="matrix(1 0 0 1 17.9048 199.8022)" class="st1 st2 st3">2</text>
	<text transform="matrix(1 0 0 1 17.9048 164.7915)" class="st1 st2 st3">4</text>
	<text transform="matrix(1 0 0 1 17.9048 129.8052)" class="st1 st2 st3">6</text>
	<text transform="matrix(1 0 0 1 17.9048 94.8198)" class="st1 st2 st3">8</text>
	<text transform="matrix(1 0 0 1 8.769 59.8227)" class="st1 st2 st3">10</text>
	<text transform="matrix(1 0 0 1 209.189 17.1802)" class="st1 st4 st5">lambda</text>
	<polyline class="st6" points="32.77,218.6 34.85,218.6 36.94,218.6 39.02,218.6 41.11,218.6 43.19,218.6 45.27,218.6 47.36,218.6 
		49.44,218.6 51.52,218.6 53.61,218.6 55.69,218.6 57.78,218.6 59.86,218.6 61.94,218.6 64.03,218.6 66.11,218.6 68.2,218.6 
		70.28,218.6 72.36,218.6 74.45,218.6 76.53,218.6 78.62,218.6 80.7,218.6 82.78,218.6 84.87,218.6 86.95,218.6 89.03,218.6 
		91.12,218.6 93.2,218.6 95.29,218.6 97.37,218.6 99.45,218.6 101.54,218.6 103.62,218.6 105.71,218.6 107.79,218.6 109.87,218.6 
		111.96,218.6 114.04,218.6 116.12,218.6 118.21,218.6 120.29,218.6 122.38,218.6 124.46,218.6 126.54,218.6 128.63,218.6 
		130.71,218.6 132.8,218.6 134.88,218.6 136.96,218.6 139.05,218.6 141.13,218.6 143.22,218.6 145.3,218.6 147.38,218.6 
		149.47,218.6 151.55,218.6 153.63,218.6 155.72,218.6 157.8,218.6 159.89,218.6 161.97,218.6 164.05,218.6 166.14,218.6 
		168.22,218.6 170.31,218.6 172.39,218.6 174.47,218.6 176.56,218.6 178.64,218.6 180.73,218.6 182.81,218.6 184.89,218.6 
		186.98,218.6 189.06,218.6 191.14,218.6 193.23,218.6 195.31,218.6 197.4,218.6 199.48,218.6 201.56,218.6 203.65,218.6 
		205.73,218.6 207.81,218.6 209.9,218.6 211.98,218.6 214.07,218.6 216.15,218.6 218.23,218.6 220.32,218.6 222.4,218.6 
		224.49,218.6 226.57,218.6 228.65,218.6 230.74,218.6 232.82,218.6 234.91,218.6 236.99,218.6 239.07,218.6 241.16,218.6 
		243.24,218.6 245.32,218.6 247.41,218.6 249.49,218.6 251.58,218.6 253.66,218.6 255.74,218.6 257.83,218.6 259.91,218.6 
		261.99,218.6 264.08,218.6 266.16,218.6 268.25,218.6 270.33,218.6 272.41,218.6 274.5,218.6 276.58,218.6 278.67,218.6 
		280.75,218.6 282.83,218.6 284.92,218.6 287,218.6 289.09,218.6 291.17,218.6 293.25,218.6 295.34,218.6 297.42,218.6 299.5,218.6 
		301.59,218.6 303.67,218.6 305.76,218.6 307.84,218.6 309.92,218.6 312.01,218.6 314.09,218.6 316.18,218.6 318.26,218.6 
		320.34,218.6 322.43,218.6 324.51,218.6 326.6,218.6 328.68,218.6 330.76,218.6 332.85,218.6 334.93,218.6 337.01,218.6 
		339.1,218.6 341.18,218.6 343.27,218.6 345.35,218.6 347.43,218.6 349.52,218.6 351.6,218.6 353.69,218.6 355.77,218.6 
		357.85,218.6 359.94,218.6 362.02,218.6 364.1,218.6 366.19,218.6 368.27,218.6 370.36,218.6 372.44,218.6 374.52,218.6 
		376.61,218.6 378.69,218.6 380.78,218.6 382.86,218.6 384.94,218.6 387.03,218.6 389.11,218.6 391.2,218.6 393.28,218.6 
		395.36,218.6 397.45,218.6 399.53,218.6 401.61,218.6 403.7,218.6 405.78,218.6 407.87,218.6 409.95,218.6 412.03,218.6 
		414.12,218.6 416.2,218.6 418.29,218.6 420.37,218.6 422.45,218.6 424.54,218.6 426.62,218.6 428.71,218.6 430.79,218.6 
		432.87,218.6 434.96,218.6 437.04,218.6 439.12,218.6 441.21,218.6 443.29,218.6 445.38,218.6 447.46,218.6 	"/>
	<polyline class="st7" points="177.42,228.7 177.62,228.7 177.82,228.7 178.02,228.7 178.22,228.7 178.43,228.7 178.63,228.7 
		178.83,228.7 179.03,228.7 179.23,228.7 179.43,228.7 179.64,228.7 179.84,228.7 180.04,228.7 180.24,228.7 180.44,228.7 
		180.64,228.7 180.85,228.7 181.05,228.7 181.25,228.7 181.45,228.7 181.65,228.7 181.85,228.7 182.06,228.7 182.26,228.7 
		182.46,228.7 182.66,228.7 182.86,228.7 183.07,228.7 183.27,228.7 183.47,228.7 183.67,228.7 183.87,228.7 184.07,228.7 
		184.27,228.7 184.48,228.7 184.68,228.7 184.88,228.7 185.08,228.7 185.28,228.7 185.49,228.7 185.69,228.7 185.89,228.7 
		186.09,228.7 186.29,228.7 186.49,228.7 186.7,228.7 186.9,228.7 187.1,228.7 187.3,228.7 187.5,228.7 187.7,228.7 187.91,228.7 
		188.11,228.7 188.31,228.7 188.51,228.7 188.71,228.7 188.91,228.7 189.12,228.7 189.32,228.7 189.52,228.7 189.72,228.7 
		189.92,228.69 190.12,228.69 190.33,228.69 190.53,228.69 190.73,228.69 190.93,228.68 191.13,228.68 191.33,228.67 191.54,228.66 
		191.74,228.65 191.94,228.63 192.14,228.62 192.34,228.6 192.55,228.57 192.75,228.54 192.95,228.51 193.15,228.46 193.35,228.42 
		193.55,228.36 193.76,228.3 193.96,228.22 194.16,228.14 194.36,228.05 194.56,227.96 194.76,227.85 194.97,227.74 195.17,227.61 
		195.37,227.49 195.57,227.35 195.77,227.22 195.97,227.08 196.18,226.94 196.38,226.81 196.58,226.68 196.78,226.55 196.98,226.44 
		197.18,226.33 197.39,226.24 197.59,226.16 197.79,226.1 197.99,226.05 198.19,226.01 198.4,226 198.6,225.99 198.8,226 
		199,226.03 199.2,226.06 199.4,226.1 199.61,226.15 199.81,226.2 200.01,226.26 200.21,226.31 200.41,226.37 200.61,226.41 
		200.82,226.45 201.02,226.48 201.22,226.5 201.42,226.51 201.62,226.51 201.82,226.49 202.03,226.45 202.23,226.4 202.43,226.34 
		202.63,226.26 202.83,226.16 203.03,226.05 203.24,225.92 203.44,225.77 203.64,225.62 203.84,225.44 204.04,225.26 204.24,225.07 
		204.45,224.86 204.65,224.65 204.85,224.43 205.05,224.2 205.25,223.97 205.46,223.73 205.66,223.49 205.86,223.25 206.06,223.01 
		206.26,222.77 206.46,222.53 206.66,222.29 206.87,222.05 207.07,221.81 207.27,221.57 207.47,221.33 207.67,221.09 207.88,220.83 
		208.08,220.58 208.28,220.31 208.48,220.03 208.68,219.74 208.88,219.43 209.09,219.1 209.29,218.75 209.49,218.38 209.69,217.99 
		209.89,217.57 210.09,217.12 210.3,216.65 210.5,216.15 210.7,215.61 210.9,215.04 211.1,214.44 211.3,213.81 211.51,213.15 
		211.71,212.46 211.91,211.73 212.11,210.98 212.31,210.2 212.52,209.39 212.72,208.56 212.92,207.71 213.12,206.84 213.32,205.95 
		213.52,205.05 213.73,204.14 213.93,203.22 214.13,202.3 214.33,201.38 214.53,200.46 214.73,199.54 214.94,198.63 215.14,197.72 
		215.34,196.82 215.54,195.92 215.74,195.03 215.94,194.14 216.15,193.25 216.35,192.36 216.55,191.47 216.75,190.57 216.95,189.66 
		217.15,188.74 217.36,187.8 217.56,186.85 217.76,185.88 217.96,184.89 218.16,183.88 218.36,182.85 218.57,181.8 218.77,180.74 
		218.97,179.65 219.17,178.56 219.37,177.44 219.58,176.31 219.78,175.16 219.98,174 220.18,172.81 220.38,171.61 220.58,170.38 
		220.79,169.11 220.99,167.82 221.19,166.48 221.39,165.09 221.59,163.65 221.79,162.15 222,160.58 222.2,158.93 222.4,157.21 
		222.6,155.41 222.8,153.53 223,151.57 223.21,149.53 223.41,147.41 223.61,145.22 223.81,142.97 224.01,140.67 224.21,138.32 
		224.42,135.94 224.62,133.54 224.82,131.14 225.02,128.74 225.22,126.35 225.42,124 225.63,121.68 225.83,119.4 226.03,117.17 
		226.23,114.99 226.43,112.87 226.63,110.8 226.84,108.78 227.04,106.8 227.24,104.86 227.44,102.95 227.64,101.06 227.85,99.19 
		228.05,97.31 228.25,95.42 228.45,93.51 228.65,91.58 228.85,89.61 229.06,87.61 229.26,85.56 229.46,83.46 229.66,81.32 
		229.86,79.14 230.06,76.92 230.27,74.68 230.47,72.41 230.67,70.13 230.87,67.85 231.07,65.59 231.27,63.36 231.48,61.18 
		231.68,59.05 231.88,57 232.08,55.04 232.28,53.19 232.48,51.45 232.69,49.85 232.89,48.38 233.09,47.07 233.29,45.92 
		233.49,44.93 233.69,44.11 233.9,43.46 234.1,42.98 234.3,42.66 234.5,42.51 234.7,42.51 234.91,42.67 235.11,42.96 235.31,43.39 
		235.51,43.94 235.71,44.6 235.91,45.37 236.12,46.21 236.32,47.14 236.52,48.14 236.72,49.19 236.92,50.3 237.12,51.45 
		237.33,52.64 237.53,53.87 237.73,55.14 237.93,56.45 238.13,57.81 238.33,59.21 238.54,60.66 238.74,62.18 238.94,63.77 
		239.14,65.43 239.34,67.18 239.55,69.02 239.75,70.97 239.95,73.02 240.15,75.19 240.35,77.47 240.55,79.86 240.75,82.36 
		240.96,84.96 241.16,87.67 241.36,90.46 241.56,93.32 241.76,96.25 241.97,99.22 242.17,102.22 242.37,105.23 242.57,108.24 
		242.77,111.23 242.97,114.17 243.18,117.06 243.38,119.89 243.58,122.64 243.78,125.3 243.98,127.87 244.18,130.35 244.39,132.73 
		244.59,135.02 244.79,137.22 244.99,139.34 245.19,141.38 245.39,143.36 245.6,145.29 245.8,147.18 246,149.04 246.2,150.88 
		246.4,152.71 246.6,154.55 246.81,156.39 247.01,158.26 247.21,160.14 247.41,162.05 247.61,163.99 247.81,165.96 248.02,167.94 
		248.22,169.95 248.42,171.96 248.62,173.99 248.82,176.01 249.03,178.02 249.23,180.02 249.43,181.99 249.63,183.93 249.83,185.83 
		250.03,187.69 250.24,189.49 250.44,191.25 250.64,192.95 250.84,194.59 251.04,196.17 251.24,197.7 251.45,199.18 251.65,200.6 
		251.85,201.98 252.05,203.31 252.25,204.61 252.45,205.86 252.66,207.08 252.86,208.26 253.06,209.42 253.26,210.54 253.46,211.64 
		253.66,212.7 253.87,213.74 254.07,214.75 254.27,215.72 254.47,216.66 254.67,217.56 254.87,218.43 255.08,219.25 255.28,220.03 
		255.48,220.76 255.68,221.45 255.88,222.09 256.08,222.68 256.29,223.23 256.49,223.72 256.69,224.18 256.89,224.59 257.09,224.96 
		257.3,225.29 257.5,225.58 257.7,225.84 257.9,226.08 258.1,226.28 258.3,226.47 258.51,226.63 258.71,226.78 258.91,226.91 
		259.11,227.03 259.31,227.14 259.51,227.24 259.72,227.34 259.92,227.43 260.12,227.51 260.32,227.6 260.52,227.68 260.72,227.75 
		260.93,227.83 261.13,227.9 261.33,227.97 261.53,228.04 261.73,228.1 261.94,228.16 262.14,228.22 262.34,228.27 262.54,228.32 
		262.74,228.37 262.94,228.41 263.14,228.45 263.35,228.48 263.55,228.52 263.75,228.54 263.95,228.57 264.15,228.59 264.36,228.61 
		264.56,228.62 264.76,228.64 264.96,228.65 265.16,228.66 265.36,228.67 265.57,228.67 265.77,228.68 265.97,228.68 266.17,228.69 
		266.37,228.69 266.57,228.69 266.78,228.69 266.98,228.69 267.18,228.7 267.38,228.7 267.58,228.7 267.78,228.7 267.99,228.7 
		268.19,228.7 268.39,228.7 268.59,228.7 268.79,228.7 269,228.7 269.2,228.7 269.4,228.7 269.6,228.7 269.8,228.7 270,228.7 
		270.2,228.7 270.41,228.7 270.61,228.7 270.81,228.7 271.01,228.7 271.21,228.7 271.42,228.7 271.62,228.7 271.82,228.7 
		272.02,228.7 272.22,228.7 272.42,228.7 272.63,228.7 272.83,228.7 273.03,228.7 273.23,228.7 273.43,228.7 273.63,228.7 
		273.84,228.7 274.04,228.7 274.24,228.7 274.44,228.7 274.64,228.7 274.84,228.7 275.05,228.7 275.25,228.7 275.45,228.7 
		275.65,228.7 275.85,228.7 276.05,228.7 276.26,228.7 276.46,228.7 276.66,228.7 276.86,228.7 277.06,228.7 277.26,228.7 
		277.47,228.7 277.67,228.7 277.87,228.7 278.07,228.7 278.27,228.7 278.48,228.7 278.68,228.7 278.88,228.7 279.08,228.7 
		279.28,228.7 279.48,228.7 279.69,228.7 279.89,228.7 280.09,228.7 280.29,228.7 280.49,228.7 	"/>
	<line class="st8" x1="235.34" y1="228.7" x2="235.34" y2="23.89"/>
	<path class="st0" d="M579.27,228.7h414.69 M579.27,23.89h414.69 M602.92,228.7v-4.15 M680.06,228.7v-4.15 M757.2,228.7v-4.15
		 M834.34,228.7v-4.15 M911.48,228.7v-4.15 M988.62,228.7v-4.15 M602.92,23.89v4.15 M680.06,23.89v4.15 M757.2,23.89v4.15
		 M834.34,23.89v4.15 M911.48,23.89v4.15 M988.62,23.89v4.15"/>
	<text transform="matrix(1 0 0 1 591.2539 250.6831)" class="st1 st2 st3">-10</text>
	<text transform="matrix(1 0 0 1 672.458 250.6831)" class="st1 st2 st3">-8</text>
	<text transform="matrix(1 0 0 1 749.5977 250.6831)" class="st1 st2 st3">-6</text>
	<text transform="matrix(1 0 0 1 826.7363 250.6831)" class="st1 st2 st3">-4</text>
	<text transform="matrix(1 0 0 1 903.876 250.6831)" class="st1 st2 st3">-2</text>
	<text transform="matrix(1 0 0 1 984.0518 250.6831)" class="st1 st2 st3">0</text>
	<path class="st0" d="M579.27,228.7V23.89 M993.96,228.7V23.89 M579.27,228.7h4.15 M579.27,186.85h4.15 M579.27,145h4.15
		 M579.27,103.15h4.15 M579.27,61.3h4.15 M993.96,228.7h-4.15 M993.96,186.85h-4.15 M993.96,145h-4.15 M993.96,103.15h-4.15
		 M993.96,61.3h-4.15"/>
	<text transform="matrix(1 0 0 1 564.4004 234.7876)" class="st1 st2 st3">0</text>
	<text transform="matrix(1 0 0 1 542.0898 192.937)" class="st1 st2 st3">0.05</text>
	<text transform="matrix(1 0 0 1 551.2119 151.0874)" class="st1 st2 st3">0.1</text>
	<text transform="matrix(1 0 0 1 542.0898 109.2378)" class="st1 st2 st3">0.15</text>
	<text transform="matrix(1 0 0 1 551.2119 67.3862)" class="st1 st2 st3">0.2</text>
	<text transform="matrix(1 0 0 1 763.2881 17.1802)" class="st1 st4 st5">alpha</text>
	<polyline class="st6" points="662.16,107.89 663.5,107.89 664.84,107.89 666.19,107.89 667.53,107.89 668.87,107.89 670.21,107.89 
		671.56,107.89 672.9,107.89 674.24,107.89 675.59,107.89 676.93,107.89 678.27,107.89 679.61,107.89 680.96,107.89 682.3,107.89 
		683.64,107.89 684.99,107.89 686.33,107.89 687.67,107.89 689.01,107.89 690.36,107.89 691.7,107.89 693.04,107.89 694.38,107.89 
		695.73,107.89 697.07,107.89 698.41,107.89 699.76,107.89 701.1,107.89 702.44,107.89 703.78,107.89 705.13,107.89 706.47,107.89 
		707.81,107.89 709.16,107.89 710.5,107.89 711.84,107.89 713.18,107.89 714.53,107.89 715.87,107.89 717.21,107.89 718.56,107.89 
		719.9,107.89 721.24,107.89 722.58,107.89 723.93,107.89 725.27,107.89 726.61,107.89 727.95,107.89 729.3,107.89 730.64,107.89 
		731.98,107.89 733.33,107.89 734.67,107.89 736.01,107.89 737.36,107.89 738.7,107.89 740.04,107.89 741.38,107.89 742.73,107.89 
		744.07,107.89 745.41,107.89 746.75,107.89 748.1,107.89 749.44,107.89 750.78,107.89 752.13,107.89 753.47,107.89 754.81,107.89 
		756.15,107.89 757.5,107.89 758.84,107.89 760.18,107.89 761.53,107.89 762.87,107.89 764.21,107.89 765.55,107.89 766.9,107.89 
		768.24,107.89 769.58,107.89 770.93,107.89 772.27,107.89 773.61,107.89 774.95,107.89 776.3,107.89 777.64,107.89 778.98,107.89 
		780.33,107.89 781.67,107.89 783.01,107.89 784.35,107.89 785.7,107.89 787.04,107.89 788.38,107.89 789.72,107.89 791.07,107.89 
		792.41,107.89 793.75,107.89 795.1,107.89 796.44,107.89 797.78,107.89 799.12,107.89 800.47,107.89 801.81,107.89 803.15,107.89 
		804.5,107.89 805.84,107.89 807.18,107.89 808.52,107.89 809.87,107.89 811.21,107.89 812.55,107.89 813.9,107.89 815.24,107.89 
		816.58,107.89 817.92,107.89 819.27,107.89 820.61,107.89 821.95,107.89 823.29,107.89 824.64,107.89 825.98,107.89 827.32,107.89 
		828.67,107.89 830.01,107.89 831.35,107.89 832.69,107.89 834.04,107.89 835.38,107.89 836.72,107.89 838.07,107.89 839.41,107.89 
		840.75,107.89 842.09,107.89 843.44,107.89 844.78,107.89 846.12,107.89 847.47,107.89 848.81,107.89 850.15,107.89 851.49,107.89 
		852.84,107.89 854.18,107.89 855.52,107.89 856.87,107.89 858.21,107.89 859.55,107.89 860.89,107.89 862.24,107.89 863.58,107.89 
		864.92,107.89 866.27,107.89 867.61,107.89 868.95,107.89 870.29,107.89 871.64,107.89 872.98,107.89 874.32,107.89 875.66,107.89 
		877.01,107.89 878.35,107.89 879.69,107.89 881.04,107.89 882.38,107.89 883.72,107.89 885.06,107.89 886.41,107.89 887.75,107.89 
		889.09,107.89 890.44,107.89 891.78,107.89 893.12,107.89 894.46,107.89 895.81,107.89 897.15,107.89 898.49,107.89 899.84,107.89 
		901.18,107.89 902.52,107.89 903.86,107.89 905.21,107.89 906.55,107.89 907.89,107.89 909.23,107.89 910.58,107.89 911.92,107.89 
		913.26,107.89 914.61,107.89 915.95,107.89 917.29,107.89 918.64,107.89 919.98,107.89 921.32,107.89 922.66,107.89 924.01,107.89 
		925.35,107.89 926.69,107.89 928.04,107.89 929.38,107.89 	"/>
	<polyline class="st7" points="579.27,228.7 580.08,228.7 580.89,228.7 581.7,228.7 582.51,228.7 583.33,228.7 584.14,228.7 
		584.95,228.7 585.76,228.7 586.57,228.7 587.38,228.7 588.19,228.7 589.01,228.7 589.82,228.7 590.63,228.7 591.44,228.7 
		592.25,228.7 593.06,228.7 593.88,228.7 594.69,228.7 595.5,228.7 596.31,228.7 597.12,228.7 597.93,228.7 598.74,228.7 
		599.56,228.7 600.37,228.7 601.18,228.7 601.99,228.69 602.8,228.69 603.61,228.69 604.43,228.69 605.24,228.69 606.05,228.68 
		606.86,228.68 607.67,228.68 608.48,228.67 609.29,228.67 610.11,228.66 610.92,228.65 611.73,228.64 612.54,228.62 613.35,228.61 
		614.16,228.59 614.97,228.57 615.79,228.54 616.6,228.5 617.41,228.47 618.22,228.42 619.03,228.37 619.84,228.3 620.66,228.23 
		621.47,228.14 622.28,228.04 623.09,227.92 623.9,227.79 624.71,227.63 625.52,227.45 626.34,227.25 627.15,227.01 627.96,226.74 
		628.77,226.44 629.58,226.09 630.39,225.7 631.21,225.26 632.02,224.77 632.83,224.21 633.64,223.6 634.45,222.91 635.26,222.15 
		636.07,221.31 636.89,220.38 637.7,219.36 638.51,218.25 639.32,217.02 640.13,215.69 640.94,214.25 641.76,212.68 642.57,210.99 
		643.38,209.18 644.19,207.22 645,205.14 645.81,202.91 646.62,200.54 647.44,198.03 648.25,195.37 649.06,192.57 649.87,189.63 
		650.68,186.56 651.49,183.34 652.3,179.99 653.12,176.52 653.93,172.92 654.74,169.21 655.55,165.39 656.36,161.48 657.17,157.48 
		657.99,153.4 658.8,149.26 659.61,145.07 660.42,140.84 661.23,136.58 662.04,132.31 662.85,128.03 663.67,123.77 664.48,119.54 
		665.29,115.35 666.1,111.21 666.91,107.13 667.72,103.14 668.54,99.23 669.35,95.43 670.16,91.73 670.97,88.15 671.78,84.7 
		672.59,81.38 673.4,78.2 674.22,75.17 675.03,72.29 675.84,69.55 676.65,66.97 677.46,64.55 678.27,62.27 679.09,60.15 
		679.9,58.18 680.71,56.36 681.52,54.68 682.33,53.13 683.14,51.73 683.95,50.45 684.77,49.29 685.58,48.25 686.39,47.33 
		687.2,46.5 688.01,45.78 688.82,45.15 689.64,44.6 690.45,44.13 691.26,43.73 692.07,43.4 692.88,43.13 693.69,42.92 694.51,42.75 
		695.32,42.63 696.13,42.56 696.94,42.52 697.75,42.51 698.56,42.53 699.37,42.58 700.18,42.65 701,42.74 701.81,42.85 
		702.62,42.98 703.43,43.13 704.24,43.29 705.05,43.46 705.87,43.64 706.68,43.84 707.49,44.04 708.3,44.26 709.11,44.48 
		709.92,44.72 710.73,44.96 711.55,45.21 712.36,45.47 713.17,45.74 713.98,46.01 714.79,46.3 715.6,46.6 716.42,46.9 717.23,47.21 
		718.04,47.54 718.85,47.87 719.66,48.21 720.47,48.57 721.28,48.93 722.1,49.3 722.91,49.68 723.72,50.08 724.53,50.48 
		725.34,50.89 726.15,51.32 726.97,51.75 727.78,52.2 728.59,52.66 729.4,53.12 730.21,53.6 731.02,54.09 731.84,54.59 732.65,55.1 
		733.46,55.62 734.27,56.15 735.08,56.69 735.89,57.24 736.7,57.8 737.52,58.38 738.33,58.96 739.14,59.55 739.95,60.16 
		740.76,60.77 741.57,61.4 742.38,62.03 743.2,62.67 744.01,63.33 744.82,63.99 745.63,64.66 746.44,65.34 747.25,66.03 
		748.06,66.72 748.88,67.42 749.69,68.12 750.5,68.83 751.31,69.54 752.12,70.25 752.93,70.96 753.75,71.66 754.56,72.37 
		755.37,73.07 756.18,73.76 756.99,74.44 757.8,75.11 758.61,75.77 759.43,76.41 760.24,77.04 761.05,77.65 761.86,78.24 
		762.67,78.8 763.48,79.35 764.3,79.87 765.11,80.36 765.92,80.83 766.73,81.27 767.54,81.68 768.35,82.06 769.17,82.41 
		769.98,82.74 770.79,83.03 771.6,83.3 772.41,83.54 773.22,83.75 774.03,83.93 774.85,84.09 775.66,84.23 776.47,84.34 
		777.28,84.44 778.09,84.51 778.9,84.57 779.72,84.61 780.53,84.64 781.34,84.65 782.15,84.66 782.96,84.66 783.77,84.66 
		784.58,84.65 785.4,84.64 786.21,84.63 787.02,84.63 787.83,84.63 788.64,84.64 789.45,84.66 790.26,84.69 791.08,84.73 
		791.89,84.79 792.7,84.87 793.51,84.97 794.32,85.09 795.13,85.24 795.95,85.41 796.76,85.61 797.57,85.83 798.38,86.09 
		799.19,86.37 800,86.69 800.81,87.04 801.63,87.43 802.44,87.85 803.25,88.3 804.06,88.79 804.87,89.31 805.68,89.87 806.5,90.46 
		807.31,91.08 808.12,91.73 808.93,92.42 809.74,93.13 810.55,93.88 811.36,94.64 812.18,95.44 812.99,96.25 813.8,97.08 
		814.61,97.93 815.42,98.79 816.23,99.67 817.05,100.55 817.86,101.45 818.67,102.35 819.48,103.25 820.29,104.15 821.1,105.05 
		821.91,105.95 822.73,106.84 823.54,107.73 824.35,108.62 825.16,109.49 825.97,110.36 826.78,111.22 827.59,112.08 828.41,112.93 
		829.22,113.77 830.03,114.6 830.84,115.44 831.65,116.27 832.46,117.1 833.27,117.93 834.09,118.76 834.9,119.6 835.71,120.45 
		836.52,121.3 837.33,122.17 838.14,123.05 838.96,123.94 839.77,124.85 840.58,125.78 841.39,126.73 842.2,127.7 843.01,128.69 
		843.83,129.7 844.64,130.73 845.45,131.79 846.26,132.87 847.07,133.98 847.88,135.1 848.69,136.25 849.51,137.42 850.32,138.6 
		851.13,139.81 851.94,141.03 852.75,142.26 853.56,143.51 854.38,144.77 855.19,146.04 856,147.32 856.81,148.6 857.62,149.88 
		858.43,151.17 859.24,152.46 860.06,153.75 860.87,155.04 861.68,156.33 862.49,157.61 863.3,158.89 864.11,160.16 864.93,161.43 
		865.74,162.7 866.55,163.95 867.36,165.2 868.17,166.45 868.98,167.69 869.79,168.92 870.61,170.15 871.42,171.38 872.23,172.6 
		873.04,173.81 873.85,175.02 874.66,176.23 875.47,177.44 876.29,178.64 877.1,179.84 877.91,181.03 878.72,182.23 879.53,183.42 
		880.34,184.6 881.16,185.79 881.97,186.96 882.78,188.14 883.59,189.31 884.4,190.47 885.21,191.63 886.02,192.78 886.84,193.92 
		887.65,195.05 888.46,196.17 889.27,197.28 890.08,198.37 890.89,199.46 891.71,200.52 892.52,201.57 893.33,202.61 894.14,203.62 
		894.95,204.62 895.76,205.59 896.57,206.54 897.39,207.47 898.2,208.38 899.01,209.27 899.82,210.13 900.63,210.97 901.44,211.78 
		902.26,212.57 903.07,213.33 903.88,214.06 904.69,214.78 905.5,215.46 906.31,216.12 907.12,216.76 907.94,217.38 908.75,217.97 
		909.56,218.53 910.37,219.08 911.18,219.6 911.99,220.1 912.81,220.58 913.62,221.04 914.43,221.48 915.24,221.9 916.05,222.3 
		916.86,222.69 917.67,223.05 918.49,223.4 919.3,223.74 920.11,224.06 920.92,224.36 921.73,224.65 922.54,224.93 923.35,225.19 
		924.17,225.43 924.98,225.67 925.79,225.89 926.6,226.1 927.41,226.3 928.22,226.49 929.04,226.67 929.85,226.83 930.66,226.99 
		931.47,227.13 932.28,227.27 933.09,227.4 933.9,227.52 934.72,227.62 935.53,227.73 936.34,227.82 937.15,227.91 937.96,227.99 
		938.77,228.06 939.59,228.13 940.4,228.19 941.21,228.25 942.02,228.3 942.83,228.34 943.64,228.38 944.45,228.42 945.27,228.46 
		946.08,228.48 946.89,228.51 947.7,228.54 948.51,228.56 949.32,228.58 950.14,228.59 950.95,228.61 951.76,228.62 952.57,228.63 
		953.38,228.64 954.19,228.65 955,228.66 955.82,228.66 956.63,228.67 957.44,228.67 958.25,228.68 959.06,228.68 959.87,228.68 
		960.68,228.69 961.5,228.69 962.31,228.69 963.12,228.69 963.93,228.69 964.74,228.69 965.55,228.69 966.37,228.7 967.18,228.7 
		967.99,228.7 968.8,228.7 969.61,228.7 970.42,228.7 971.23,228.7 972.05,228.7 972.86,228.7 973.67,228.7 974.48,228.7 
		975.29,228.7 976.1,228.7 976.92,228.7 977.73,228.7 978.54,228.7 979.35,228.7 980.16,228.7 980.97,228.7 981.78,228.7 
		982.6,228.7 983.41,228.7 984.22,228.7 985.03,228.7 985.84,228.7 986.65,228.7 987.47,228.7 988.28,228.7 989.09,228.7 
		989.9,228.7 990.71,228.7 991.52,228.7 992.33,228.7 993.15,228.7 993.96,228.7 	"/>
	<line class="st8" x1="809.53" y1="228.7" x2="809.53" y2="23.89"/>
	<path class="st0" d="M35.13,515.28h415.7 M35.13,310.47h415.7 M82.42,515.28v-4.16 M158.23,515.28v-4.16 M234.04,515.28v-4.16
		 M309.85,515.28v-4.16 M385.66,515.28v-4.16 M82.42,310.47v4.16 M158.23,310.47v4.16 M234.04,310.47v4.16 M309.85,310.47v4.16
		 M385.66,310.47v4.16"/>
	<text transform="matrix(1 0 0 1 77.856 537.2627)" class="st1 st2 st3">0</text>
	<text transform="matrix(1 0 0 1 147.0737 537.2627)" class="st1 st2 st3">0.2</text>
	<text transform="matrix(1 0 0 1 222.8931 537.2627)" class="st1 st2 st3">0.4</text>
	<text transform="matrix(1 0 0 1 298.6987 537.2627)" class="st1 st2 st3">0.6</text>
	<text transform="matrix(1 0 0 1 374.5044 537.2627)" class="st1 st2 st3">0.8</text>
	<path class="st0" d="M35.13,515.28V310.47 M450.83,515.28V310.47 M35.13,515.28h4.16 M35.13,477.47h4.16 M35.13,439.67h4.16
		 M35.13,401.87h4.16 M35.13,364.06h4.16 M35.13,326.26h4.16 M450.83,515.28h-4.16 M450.83,477.47h-4.16 M450.83,439.67h-4.16
		 M450.83,401.87h-4.16 M450.83,364.06h-4.16 M450.83,326.26h-4.16"/>
	<text transform="matrix(1 0 0 1 20.2563 521.3682)" class="st1 st2 st3">0</text>
	<text transform="matrix(1 0 0 1 7.0796 483.5576)" class="st1 st2 st3">0.5</text>
	<text transform="matrix(1 0 0 1 20.2563 445.747)" class="st1 st2 st3">1</text>
	<text transform="matrix(1 0 0 1 7.0796 407.9638)" class="st1 st2 st3">1.5</text>
	<text transform="matrix(1 0 0 1 20.2563 370.1533)" class="st1 st2 st3">2</text>
	<text transform="matrix(1 0 0 1 7.0796 332.3427)" class="st1 st2 st3">2.5</text>
	<text transform="matrix(1 0 0 1 199.3804 303.7607)" class="st1 st4 st5">sigma_eta</text>
	<polyline class="st6" points="107.81,427.97 109.46,427.97 111.11,427.97 112.76,427.97 114.41,427.97 116.06,427.97 
		117.71,427.97 119.36,427.97 121.01,427.97 122.66,427.97 124.31,427.97 125.96,427.97 127.61,427.97 129.26,427.97 130.91,427.97 
		132.56,427.97 134.21,427.97 135.86,427.97 137.51,427.97 139.16,427.97 140.81,427.97 142.45,427.97 144.1,427.97 145.75,427.97 
		147.4,427.97 149.05,427.97 150.7,427.97 152.35,427.97 154,427.97 155.65,427.97 157.3,427.97 158.95,427.97 160.6,427.97 
		162.25,427.97 163.9,427.97 165.55,427.97 167.2,427.97 168.85,427.97 170.5,427.97 172.15,427.97 173.8,427.97 175.45,427.97 
		177.1,427.97 178.75,427.97 180.4,427.97 182.05,427.97 183.69,427.97 185.34,427.97 186.99,427.97 188.64,427.97 190.29,427.97 
		191.94,427.97 193.59,427.97 195.24,427.97 196.89,427.97 198.54,427.97 200.19,427.97 201.84,427.97 203.49,427.97 205.14,427.97 
		206.79,427.97 208.44,427.97 210.09,427.97 211.74,427.97 213.39,427.97 215.04,427.97 216.69,427.97 218.34,427.97 219.99,427.97 
		221.64,427.97 223.29,427.97 224.93,427.97 226.58,427.97 228.23,427.97 229.88,427.97 231.53,427.97 233.18,427.97 234.83,427.97 
		236.48,427.97 238.13,427.97 239.78,427.97 241.43,427.97 243.08,427.97 244.73,427.97 246.38,427.97 248.03,427.97 249.68,427.97 
		251.33,427.97 252.98,427.97 254.63,427.97 256.28,427.97 257.93,427.97 259.58,427.97 261.23,427.97 262.88,427.97 264.52,427.97 
		266.17,427.97 267.82,427.97 269.47,427.97 271.12,427.97 272.77,427.97 274.42,427.97 276.07,427.97 277.72,427.97 279.37,427.97 
		281.02,427.97 282.67,427.97 284.32,427.97 285.97,427.97 287.62,427.97 289.27,427.97 290.92,427.97 292.57,427.97 294.22,427.97 
		295.87,427.97 297.52,427.97 299.17,427.97 300.82,427.97 302.47,427.97 304.11,427.97 305.76,427.97 307.41,427.97 309.06,427.97 
		310.71,427.97 312.36,427.97 314.01,427.97 315.66,427.97 317.31,427.97 318.96,427.97 320.61,427.97 322.26,427.97 323.91,427.97 
		325.56,427.97 327.21,427.97 328.86,427.97 330.51,427.97 332.16,427.97 333.81,427.97 335.46,427.97 337.11,427.97 338.76,427.97 
		340.41,427.97 342.06,427.97 343.71,427.97 345.35,427.97 347,427.97 348.65,427.97 350.3,427.97 351.95,427.97 353.6,427.97 
		355.25,427.97 356.9,427.97 358.55,427.97 360.2,427.97 361.85,427.97 363.5,427.97 365.15,427.97 366.8,427.97 368.45,427.97 
		370.1,427.97 371.75,427.97 373.4,427.97 375.05,427.97 376.7,427.97 378.35,427.97 380,427.97 381.65,427.97 383.3,427.97 
		384.95,427.97 386.59,427.97 388.24,427.97 389.89,427.97 391.54,427.97 393.19,427.97 394.84,427.97 396.49,427.97 398.14,427.97 
		399.79,427.97 401.44,427.97 403.09,427.97 404.74,427.97 406.39,427.97 408.04,427.97 409.69,427.97 411.34,427.97 412.99,427.97 
		414.64,427.97 416.29,427.97 417.94,427.97 419.59,427.97 421.24,427.97 422.89,427.97 424.54,427.97 426.18,427.97 427.83,427.97 
		429.48,427.97 431.13,427.97 432.78,427.97 434.43,427.97 436.08,427.97 	"/>
	<polyline class="st7" points="35.13,515.28 35.94,515.28 36.75,515.28 37.57,515.28 38.38,515.28 39.19,515.28 40.01,515.28 
		40.82,515.28 41.63,515.28 42.45,515.28 43.26,515.28 44.08,515.28 44.89,515.28 45.7,515.28 46.52,515.28 47.33,515.28 
		48.14,515.28 48.96,515.28 49.77,515.28 50.58,515.28 51.4,515.28 52.21,515.28 53.02,515.28 53.84,515.28 54.65,515.28 
		55.46,515.28 56.28,515.28 57.09,515.28 57.9,515.28 58.72,515.28 59.53,515.28 60.35,515.28 61.16,515.28 61.97,515.28 
		62.79,515.28 63.6,515.28 64.41,515.28 65.23,515.28 66.04,515.28 66.85,515.28 67.67,515.28 68.48,515.28 69.29,515.28 
		70.11,515.27 70.92,515.27 71.73,515.27 72.55,515.27 73.36,515.27 74.18,515.26 74.99,515.26 75.8,515.25 76.62,515.25 
		77.43,515.24 78.24,515.23 79.06,515.22 79.87,515.2 80.68,515.19 81.5,515.17 82.31,515.14 83.12,515.12 83.94,515.08 
		84.75,515.04 85.56,515 86.38,514.94 87.19,514.88 88,514.81 88.82,514.72 89.63,514.63 90.45,514.51 91.26,514.39 92.07,514.24 
		92.89,514.07 93.7,513.89 94.51,513.67 95.33,513.43 96.14,513.17 96.95,512.87 97.77,512.53 98.58,512.16 99.39,511.75 
		100.21,511.3 101.02,510.81 101.83,510.27 102.65,509.68 103.46,509.03 104.28,508.34 105.09,507.58 105.9,506.77 106.72,505.9 
		107.53,504.96 108.34,503.97 109.16,502.9 109.97,501.78 110.78,500.58 111.6,499.32 112.41,497.99 113.22,496.6 114.04,495.13 
		114.85,493.6 115.66,492.01 116.48,490.35 117.29,488.63 118.1,486.84 118.92,484.99 119.73,483.09 120.55,481.13 121.36,479.11 
		122.17,477.05 122.99,474.93 123.8,472.77 124.61,470.56 125.43,468.31 126.24,466.02 127.05,463.7 127.87,461.34 128.68,458.96 
		129.49,456.54 130.31,454.11 131.12,451.66 131.93,449.19 132.75,446.7 133.56,444.21 134.37,441.72 135.19,439.22 136,436.72 
		136.82,434.23 137.63,431.75 138.44,429.28 139.26,426.83 140.07,424.4 140.88,421.99 141.7,419.62 142.51,417.27 143.32,414.96 
		144.14,412.69 144.95,410.46 145.76,408.28 146.58,406.15 147.39,404.07 148.2,402.04 149.02,400.07 149.83,398.16 150.64,396.32 
		151.46,394.53 152.27,392.82 153.08,391.17 153.9,389.59 154.71,388.09 155.53,386.65 156.34,385.28 157.15,383.99 157.97,382.76 
		158.78,381.61 159.59,380.52 160.41,379.5 161.22,378.54 162.03,377.64 162.85,376.8 163.66,376.02 164.47,375.28 165.29,374.6 
		166.1,373.95 166.91,373.34 167.73,372.77 168.54,372.22 169.35,371.69 170.17,371.18 170.98,370.69 171.8,370.2 172.61,369.72 
		173.42,369.23 174.24,368.74 175.05,368.25 175.86,367.74 176.68,367.22 177.49,366.69 178.3,366.14 179.12,365.57 179.93,364.98 
		180.74,364.38 181.56,363.75 182.37,363.11 183.18,362.45 184,361.77 184.81,361.07 185.63,360.36 186.44,359.63 187.25,358.89 
		188.07,358.14 188.88,357.37 189.69,356.59 190.51,355.8 191.32,355 192.13,354.19 192.95,353.37 193.76,352.55 194.57,351.71 
		195.39,350.86 196.2,350.01 197.01,349.14 197.83,348.27 198.64,347.39 199.46,346.5 200.27,345.61 201.08,344.72 201.9,343.82 
		202.71,342.92 203.52,342.02 204.34,341.12 205.15,340.24 205.96,339.36 206.78,338.49 207.59,337.65 208.4,336.82 209.22,336.02 
		210.03,335.24 210.84,334.5 211.66,333.79 212.47,333.12 213.28,332.5 214.1,331.92 214.91,331.39 215.73,330.91 216.54,330.49 
		217.35,330.12 218.17,329.8 218.98,329.55 219.79,329.35 220.61,329.2 221.42,329.12 222.23,329.09 223.05,329.11 223.86,329.19 
		224.67,329.32 225.49,329.49 226.3,329.71 227.11,329.98 227.93,330.28 228.74,330.62 229.55,330.99 230.37,331.39 231.18,331.82 
		232,332.28 232.81,332.76 233.62,333.26 234.44,333.77 235.25,334.31 236.06,334.85 236.88,335.41 237.69,335.98 238.5,336.56 
		239.32,337.15 240.13,337.75 240.94,338.35 241.76,338.97 242.57,339.58 243.38,340.21 244.2,340.84 245.01,341.49 245.83,342.13 
		246.64,342.79 247.45,343.46 248.27,344.13 249.08,344.82 249.89,345.51 250.71,346.22 251.52,346.94 252.33,347.67 253.15,348.42 
		253.96,349.18 254.77,349.96 255.59,350.75 256.4,351.57 257.21,352.4 258.03,353.25 258.84,354.12 259.65,355.01 260.47,355.92 
		261.28,356.85 262.1,357.81 262.91,358.79 263.72,359.8 264.54,360.83 265.35,361.88 266.16,362.96 266.98,364.07 267.79,365.2 
		268.6,366.35 269.42,367.54 270.23,368.74 271.04,369.97 271.86,371.23 272.67,372.5 273.48,373.8 274.3,375.12 275.11,376.45 
		275.93,377.81 276.74,379.18 277.55,380.56 278.37,381.96 279.18,383.36 279.99,384.78 280.81,386.2 281.62,387.63 282.43,389.05 
		283.25,390.48 284.06,391.9 284.87,393.32 285.69,394.74 286.5,396.15 287.31,397.55 288.13,398.93 288.94,400.31 289.75,401.68 
		290.57,403.04 291.38,404.39 292.2,405.72 293.01,407.05 293.82,408.37 294.64,409.68 295.45,410.99 296.26,412.29 297.08,413.6 
		297.89,414.9 298.7,416.2 299.52,417.51 300.33,418.83 301.14,420.15 301.96,421.48 302.77,422.83 303.58,424.19 304.4,425.57 
		305.21,426.97 306.03,428.38 306.84,429.81 307.65,431.26 308.47,432.73 309.28,434.21 310.09,435.72 310.91,437.24 311.72,438.77 
		312.53,440.33 313.35,441.89 314.16,443.47 314.97,445.05 315.79,446.65 316.6,448.24 317.41,449.85 318.23,451.45 319.04,453.05 
		319.85,454.64 320.67,456.23 321.48,457.8 322.3,459.37 323.11,460.92 323.92,462.46 324.74,463.98 325.55,465.48 326.36,466.96 
		327.18,468.41 327.99,469.84 328.8,471.25 329.62,472.63 330.43,473.98 331.24,475.3 332.06,476.6 332.87,477.87 333.68,479.1 
		334.5,480.31 335.31,481.49 336.13,482.64 336.94,483.77 337.75,484.86 338.57,485.93 339.38,486.97 340.19,487.98 341.01,488.97 
		341.82,489.93 342.63,490.86 343.45,491.77 344.26,492.65 345.07,493.51 345.89,494.35 346.7,495.16 347.51,495.95 348.33,496.72 
		349.14,497.46 349.95,498.18 350.77,498.88 351.58,499.56 352.4,500.22 353.21,500.86 354.02,501.49 354.84,502.09 355.65,502.67 
		356.46,503.23 357.28,503.78 358.09,504.31 358.9,504.82 359.72,505.32 360.53,505.8 361.34,506.26 362.16,506.72 362.97,507.15 
		363.78,507.58 364.6,507.99 365.41,508.38 366.23,508.77 367.04,509.14 367.85,509.5 368.67,509.84 369.48,510.18 370.29,510.5 
		371.11,510.81 371.92,511.11 372.73,511.4 373.55,511.67 374.36,511.94 375.17,512.19 375.99,512.43 376.8,512.66 377.61,512.87 
		378.43,513.08 379.24,513.27 380.05,513.45 380.87,513.62 381.68,513.77 382.5,513.92 383.31,514.06 384.12,514.18 384.94,514.3 
		385.75,514.41 386.56,514.5 387.38,514.59 388.19,514.67 389,514.75 389.82,514.81 390.63,514.87 391.44,514.92 392.26,514.97 
		393.07,515.01 393.88,515.05 394.7,515.08 395.51,515.11 396.32,515.14 397.14,515.16 397.95,515.18 398.77,515.19 399.58,515.21 
		400.39,515.22 401.21,515.23 402.02,515.24 402.83,515.24 403.65,515.25 404.46,515.26 405.27,515.26 406.09,515.26 406.9,515.27 
		407.71,515.27 408.53,515.27 409.34,515.27 410.15,515.27 410.97,515.28 411.78,515.28 412.6,515.28 413.41,515.28 414.22,515.28 
		415.04,515.28 415.85,515.28 416.66,515.28 417.48,515.28 418.29,515.28 419.1,515.28 419.92,515.28 420.73,515.28 421.54,515.28 
		422.36,515.28 423.17,515.28 423.98,515.28 424.8,515.28 425.61,515.28 426.43,515.28 427.24,515.28 428.05,515.28 428.87,515.28 
		429.68,515.28 430.49,515.28 431.31,515.28 432.12,515.28 432.93,515.28 433.75,515.28 434.56,515.28 435.37,515.28 436.19,515.28 
		437,515.28 437.81,515.28 438.63,515.28 439.44,515.28 440.25,515.28 441.07,515.28 441.88,515.28 442.7,515.28 443.51,515.28 
		444.32,515.28 445.14,515.28 445.95,515.28 446.76,515.28 447.58,515.28 448.39,515.28 449.2,515.28 450.02,515.28 450.83,515.28 	
		"/>
	<line class="st8" x1="171.68" y1="515.28" x2="171.68" y2="310.47"/>
	<path class="st0" d="M579.27,513.61h414.69 M579.27,308.8h414.69 M651.39,513.61v-4.15 M744.85,513.61v-4.15 M838.33,513.61v-4.15
		 M931.79,513.61v-4.15 M651.39,308.8v4.15 M744.85,308.8v4.15 M838.33,308.8v4.15 M931.79,308.8v4.15"/>
	<text transform="matrix(1 0 0 1 640.2354 535.5811)" class="st1 st2 st3">0.2</text>
	<text transform="matrix(1 0 0 1 733.7041 535.5811)" class="st1 st2 st3">0.4</text>
	<text transform="matrix(1 0 0 1 827.1768 535.5811)" class="st1 st2 st3">0.6</text>
	<text transform="matrix(1 0 0 1 920.6309 535.5811)" class="st1 st2 st3">0.8</text>
	<path class="st0" d="M579.27,513.61V308.8 M993.96,513.61V308.8 M579.27,513.61h4.15 M579.27,474.38h4.15 M579.27,435.16h4.15
		 M579.27,395.93h4.15 M579.27,356.71h4.15 M579.27,317.48h4.15 M993.96,513.61h-4.15 M993.96,474.38h-4.15 M993.96,435.16h-4.15
		 M993.96,395.93h-4.15 M993.96,356.71h-4.15 M993.96,317.48h-4.15"/>
	<text transform="matrix(1 0 0 1 564.4033 505.0537)" class="st1 st2 st3">0</text>
	<text transform="matrix(1 0 0 1 555.2676 465.8291)" class="st1 st2 st3">10</text>
	<text transform="matrix(1 0 0 1 555.2676 426.5947)" class="st1 st2 st3">20</text>
	<text transform="matrix(1 0 0 1 555.2676 387.372)" class="st1 st2 st3">30</text>
	<text transform="matrix(1 0 0 1 555.2676 348.1474)" class="st1 st2 st3">40</text>
	<text transform="matrix(1 0 0 1 555.2676 308.9248)" class="st1 st2 st3">50</text>
	<text transform="matrix(1 0 0 1 725.2686 302.0908)" class="st1 st4 st5">sigma_epsilon</text>
	<polyline class="st6" points="589.22,509.08 591.26,509.08 593.29,509.08 595.32,509.08 597.36,509.08 599.39,509.08 
		601.43,509.08 603.46,509.08 605.49,509.08 607.53,509.08 609.56,509.08 611.59,509.08 613.63,509.08 615.66,509.08 617.7,509.08 
		619.73,509.08 621.76,509.08 623.8,509.08 625.83,509.08 627.87,509.08 629.9,509.08 631.93,509.08 633.97,509.08 636,509.08 
		638.03,509.08 640.07,509.08 642.1,509.08 644.14,509.08 646.17,509.08 648.2,509.08 650.24,509.08 652.27,509.08 654.31,509.08 
		656.34,509.08 658.37,509.08 660.41,509.08 662.44,509.08 664.47,509.08 666.51,509.08 668.54,509.08 670.58,509.08 672.61,509.08 
		674.64,509.08 676.68,509.08 678.71,509.08 680.75,509.08 682.78,509.08 684.81,509.08 686.85,509.08 688.88,509.08 690.91,509.08 
		692.95,509.08 694.98,509.08 697.02,509.08 699.05,509.08 701.08,509.08 703.12,509.08 705.15,509.08 707.18,509.08 709.22,509.08 
		711.25,509.08 713.29,509.08 715.32,509.08 717.35,509.08 719.39,509.08 721.42,509.08 723.46,509.08 725.49,509.08 727.52,509.08 
		729.56,509.08 731.59,509.08 733.63,509.08 735.66,509.08 737.69,509.08 739.73,509.08 741.76,509.08 743.79,509.08 745.83,509.08 
		747.86,509.08 749.9,509.08 751.93,509.08 753.96,509.08 756,509.08 758.03,509.08 760.07,509.08 762.1,509.08 764.13,509.08 
		766.17,509.08 768.2,509.08 770.23,509.08 772.27,509.08 774.3,509.08 776.34,509.08 778.37,509.08 780.4,509.08 782.44,509.08 
		784.47,509.08 786.51,509.08 788.54,509.08 790.57,509.08 792.61,509.08 794.64,509.08 796.67,509.08 798.71,509.08 800.74,509.08 
		802.78,509.08 804.81,509.08 806.84,509.08 808.88,509.08 810.91,509.08 812.95,509.08 814.98,509.08 817.01,509.08 819.05,509.08 
		821.08,509.08 823.11,509.08 825.15,509.08 827.18,509.08 829.22,509.08 831.25,509.08 833.28,509.08 835.32,509.08 837.35,509.08 
		839.39,509.08 841.42,509.08 843.45,509.08 845.49,509.08 847.52,509.08 849.55,509.08 851.59,509.08 853.62,509.08 855.66,509.08 
		857.69,509.08 859.72,509.08 861.76,509.08 863.79,509.08 865.83,509.08 867.86,509.08 869.89,509.08 871.93,509.08 873.96,509.08 
		875.99,509.08 878.03,509.08 880.06,509.08 882.1,509.08 884.13,509.08 886.16,509.08 888.2,509.08 890.23,509.08 892.27,509.08 
		894.3,509.08 896.33,509.08 898.37,509.08 900.4,509.08 902.43,509.08 904.47,509.08 906.5,509.08 908.54,509.08 910.57,509.08 
		912.6,509.08 914.64,509.08 916.67,509.08 918.71,509.08 920.74,509.08 922.77,509.08 924.81,509.08 926.84,509.08 928.87,509.08 
		930.91,509.08 932.94,509.08 934.98,509.08 937.01,509.08 939.04,509.08 941.08,509.08 943.11,509.08 945.14,509.08 947.18,509.08 
		949.21,509.08 951.25,509.08 953.28,509.08 955.31,509.08 957.35,509.08 959.38,509.08 961.42,509.08 963.45,509.08 965.48,509.08 
		967.52,509.08 969.55,509.08 971.59,509.08 973.62,509.08 975.65,509.08 977.69,509.08 979.72,509.08 981.75,509.08 983.79,509.08 
		985.82,509.08 987.86,509.08 989.89,509.08 991.92,509.08 993.96,509.08 	"/>
	<polyline class="st7" points="579.27,513.61 579.37,513.61 579.46,513.61 579.56,513.61 579.66,513.61 579.75,513.61 
		579.85,513.61 579.95,513.61 580.05,513.61 580.15,513.61 580.24,513.61 580.34,513.61 580.44,513.61 580.53,513.61 580.63,513.61 
		580.73,513.61 580.83,513.61 580.92,513.61 581.02,513.61 581.12,513.61 581.22,513.61 581.31,513.61 581.41,513.61 581.51,513.61 
		581.61,513.61 581.7,513.61 581.8,513.61 581.9,513.61 582,513.61 582.09,513.61 582.19,513.61 582.29,513.61 582.38,513.61 
		582.48,513.61 582.58,513.61 582.68,513.61 582.78,513.61 582.87,513.61 582.97,513.61 583.07,513.61 583.16,513.61 583.26,513.61 
		583.36,513.61 583.46,513.61 583.55,513.61 583.65,513.61 583.75,513.61 583.85,513.61 583.94,513.61 584.04,513.61 584.14,513.61 
		584.24,513.61 584.33,513.61 584.43,513.61 584.53,513.61 584.63,513.61 584.72,513.61 584.82,513.61 584.92,513.61 585.02,513.6 
		585.11,513.6 585.21,513.6 585.31,513.6 585.41,513.59 585.5,513.59 585.6,513.58 585.7,513.57 585.79,513.55 585.89,513.53 
		585.99,513.49 586.09,513.45 586.18,513.39 586.28,513.31 586.38,513.21 586.48,513.07 586.57,512.9 586.67,512.67 586.77,512.39 
		586.87,512.03 586.96,511.58 587.06,511.02 587.16,510.33 587.26,509.5 587.35,508.5 587.45,507.3 587.55,505.88 587.65,504.21 
		587.74,502.28 587.84,500.05 587.94,497.5 588.04,494.61 588.13,491.37 588.23,487.76 588.33,483.79 588.42,479.44 588.52,474.74 
		588.62,469.67 588.72,464.28 588.81,458.58 588.91,452.61 589.01,446.41 589.11,440.01 589.2,433.47 589.3,426.83 589.4,420.16 
		589.5,413.48 589.59,406.86 589.69,400.35 589.79,393.98 589.89,387.8 589.98,381.85 590.08,376.14 590.18,370.72 590.28,365.6 
		590.37,360.79 590.47,356.32 590.57,352.18 590.67,348.38 590.76,344.92 590.86,341.81 590.96,339.03 591.05,336.58 591.15,334.46 
		591.25,332.65 591.35,331.13 591.45,329.91 591.54,328.95 591.64,328.24 591.74,327.76 591.83,327.5 591.93,327.42 592.03,327.5 
		592.13,327.72 592.22,328.05 592.32,328.48 592.42,328.97 592.52,329.5 592.61,330.06 592.71,330.63 592.81,331.19 592.91,331.75 
		593,332.28 593.1,332.79 593.2,333.29 593.3,333.77 593.39,334.25 593.49,334.74 593.59,335.26 593.68,335.81 593.78,336.42 
		593.88,337.1 593.98,337.87 594.08,338.75 594.17,339.74 594.27,340.86 594.37,342.12 594.46,343.51 594.56,345.03 594.66,346.69 
		594.76,348.48 594.85,350.37 594.95,352.36 595.05,354.43 595.15,356.56 595.24,358.73 595.34,360.92 595.44,363.11 595.54,365.28 
		595.63,367.42 595.73,369.5 595.83,371.52 595.93,373.47 596.02,375.35 596.12,377.15 596.22,378.87 596.31,380.53 596.41,382.12 
		596.51,383.65 596.61,385.14 596.71,386.61 596.8,388.05 596.9,389.5 597,390.95 597.09,392.42 597.19,393.93 597.29,395.48 
		597.39,397.08 597.48,398.73 597.58,400.44 597.68,402.21 597.78,404.03 597.87,405.91 597.97,407.84 598.07,409.82 598.17,411.83 
		598.26,413.88 598.36,415.94 598.46,418 598.56,420.07 598.65,422.12 598.75,424.15 598.85,426.15 598.95,428.09 599.04,429.99 
		599.14,431.82 599.24,433.58 599.34,435.27 599.43,436.88 599.53,438.42 599.63,439.87 599.72,441.24 599.82,442.54 599.92,443.77 
		600.02,444.94 600.11,446.06 600.21,447.14 600.31,448.19 600.41,449.22 600.5,450.24 600.6,451.26 600.7,452.29 600.8,453.34 
		600.89,454.42 600.99,455.53 601.09,456.67 601.19,457.84 601.28,459.05 601.38,460.29 601.48,461.55 601.58,462.84 601.67,464.13 
		601.77,465.44 601.87,466.74 601.97,468.04 602.06,469.32 602.16,470.58 602.26,471.83 602.35,473.05 602.45,474.25 602.55,475.42 
		602.65,476.57 602.75,477.71 602.84,478.83 602.94,479.93 603.04,481.03 603.13,482.12 603.23,483.21 603.33,484.3 603.43,485.38 
		603.52,486.46 603.62,487.54 603.72,488.61 603.82,489.66 603.91,490.71 604.01,491.72 604.11,492.71 604.21,493.67 604.3,494.59 
		604.4,495.47 604.5,496.3 604.6,497.08 604.69,497.81 604.79,498.49 604.89,499.11 604.98,499.69 605.08,500.21 605.18,500.69 
		605.28,501.13 605.38,501.53 605.47,501.9 605.57,502.23 605.67,502.54 605.76,502.83 605.86,503.1 605.96,503.35 606.06,503.59 
		606.15,503.82 606.25,504.04 606.35,504.25 606.45,504.45 606.54,504.64 606.64,504.82 606.74,504.99 606.84,505.14 606.93,505.29 
		607.03,505.43 607.13,505.55 607.23,505.67 607.32,505.77 607.42,505.87 607.52,505.95 607.61,506.03 607.71,506.11 607.81,506.19 
		607.91,506.26 608.01,506.34 608.1,506.43 608.2,506.52 608.3,506.63 608.39,506.74 608.49,506.87 608.59,507.01 608.69,507.16 
		608.78,507.32 608.88,507.5 608.98,507.69 609.08,507.88 609.17,508.09 609.27,508.3 609.37,508.51 609.47,508.73 609.56,508.94 
		609.66,509.15 609.76,509.36 609.86,509.57 609.95,509.76 610.05,509.95 610.15,510.13 610.24,510.29 610.34,510.45 610.44,510.59 
		610.54,510.72 610.64,510.84 610.73,510.94 610.83,511.04 610.93,511.12 611.02,511.2 611.12,511.27 611.22,511.33 611.32,511.38 
		611.41,511.43 611.51,511.48 611.61,511.52 611.71,511.57 611.8,511.61 611.9,511.66 612,511.7 612.1,511.76 612.19,511.81 
		612.29,511.87 612.39,511.93 612.49,512 612.58,512.07 612.68,512.15 612.78,512.23 612.88,512.31 612.97,512.39 613.07,512.47 
		613.17,512.55 613.27,512.63 613.36,512.71 613.46,512.79 613.56,512.86 613.65,512.93 613.75,513 613.85,513.06 613.95,513.12 
		614.04,513.17 614.14,513.21 614.24,513.25 614.34,513.28 614.43,513.31 614.53,513.34 614.63,513.36 614.73,513.37 614.82,513.39 
		614.92,513.4 615.02,513.4 615.12,513.41 615.21,513.41 615.31,513.41 615.41,513.4 615.51,513.4 615.6,513.39 615.7,513.39 
		615.8,513.38 615.9,513.38 615.99,513.37 616.09,513.36 616.19,513.36 616.28,513.35 616.38,513.34 616.48,513.34 616.58,513.34 
		616.68,513.33 616.77,513.33 616.87,513.33 616.97,513.32 617.06,513.32 617.16,513.32 617.26,513.32 617.36,513.32 617.45,513.32 
		617.55,513.32 617.65,513.32 617.75,513.32 617.84,513.31 617.94,513.31 618.04,513.31 618.14,513.31 618.23,513.3 618.33,513.3 
		618.43,513.29 618.53,513.29 618.62,513.29 618.72,513.29 618.82,513.29 618.91,513.29 619.01,513.29 619.11,513.29 619.21,513.3 
		619.31,513.3 619.4,513.31 619.5,513.32 619.6,513.33 619.69,513.35 619.79,513.36 619.89,513.38 619.99,513.4 620.08,513.41 
		620.18,513.43 620.28,513.45 620.38,513.46 620.47,513.48 620.57,513.49 620.67,513.51 620.77,513.52 620.86,513.54 620.96,513.55 
		621.06,513.56 621.16,513.56 621.25,513.57 621.35,513.58 621.45,513.58 621.54,513.59 621.64,513.59 621.74,513.6 621.84,513.6 
		621.94,513.6 622.03,513.6 622.13,513.6 622.23,513.6 622.32,513.61 622.42,513.61 622.52,513.61 622.62,513.61 622.71,513.61 
		622.81,513.61 622.91,513.61 623.01,513.61 623.1,513.61 623.2,513.61 623.3,513.61 623.4,513.61 623.49,513.61 623.59,513.61 
		623.69,513.61 623.79,513.61 623.88,513.61 623.98,513.61 624.08,513.61 624.18,513.61 624.27,513.61 624.37,513.61 624.47,513.61 
		624.57,513.61 624.66,513.61 624.76,513.61 624.86,513.61 624.95,513.61 625.05,513.61 625.15,513.61 625.25,513.61 625.34,513.61 
		625.44,513.61 625.54,513.61 625.64,513.61 625.73,513.61 625.83,513.61 625.93,513.61 626.03,513.61 626.12,513.61 626.22,513.61 
		626.32,513.61 626.42,513.61 626.51,513.61 626.61,513.61 626.71,513.61 626.81,513.61 626.9,513.61 627,513.61 627.1,513.61 
		627.2,513.61 627.29,513.61 627.39,513.61 627.49,513.61 627.58,513.61 627.68,513.61 627.78,513.61 627.88,513.61 627.97,513.61 
		628.07,513.61 628.17,513.61 628.27,513.61 628.36,513.61 628.46,513.61 628.56,513.61 628.66,513.61 628.75,513.61 628.85,513.61 
		628.95,513.61 629.05,513.61 	"/>
	<line class="st8" x1="591.93" y1="513.61" x2="591.93" y2="308.8"/>
</g>
</svg>
